<svg width="88" height="88" viewBox="0 0 88 88" fill="none" xmlns="http://www.w3.org/2000/svg">
<g filter="url(#filter0_b_116_273)">
<rect width="88" height="88" rx="8" fill="#F7F7F7" fill-opacity="0.5"/>
<rect x="0.5" y="0.5" width="87" height="87" rx="7.5" stroke="#D0D5DD"/>
<path d="M48.0928 47.8684H39.9662C38.6228 47.8684 37.5298 46.7754 37.5298 45.4319C37.5298 44.0885 38.6228 42.9956 39.9662 42.9956H48.0928C49.4363 42.9956 50.5292 44.0886 50.5292 45.4319C50.5292 46.7755 49.4363 47.8684 48.0928 47.8684ZM39.9662 44.1338C39.2504 44.1338 38.668 44.7161 38.668 45.4319C38.668 46.1478 39.2504 46.7302 39.9662 46.7302H48.0928C48.8087 46.7302 49.391 46.1478 49.391 45.4319C49.391 44.7161 48.8087 44.1338 48.0928 44.1338H39.9662Z" fill="#223039"/>
<path d="M47.8575 55.8007C47.5432 55.8007 47.2884 55.5459 47.2884 55.2316V47.8684H40.7707V55.2316C40.7707 55.5459 40.5158 55.8007 40.2016 55.8007C39.8873 55.8007 39.6325 55.5459 39.6325 55.2316V47.2992C39.6325 46.9849 39.8873 46.7301 40.2016 46.7301H47.8575C48.1719 46.7301 48.4266 46.9849 48.4266 47.2992V55.2316C48.4266 55.5458 48.1718 55.8007 47.8575 55.8007ZM47.392 44.1337C47.0776 44.1337 46.8229 43.8788 46.8229 43.5646C46.8229 40.7363 48.1981 39.5077 49.0198 38.7736C49.2154 38.5989 49.4807 38.3618 49.525 38.2554C49.5219 38.2474 49.516 38.2342 49.5051 38.2156L44.0295 28.9045L38.5539 38.2156C38.543 38.2342 38.5371 38.2473 38.534 38.2554C38.5784 38.3618 38.8437 38.5989 39.0392 38.7736C39.8609 39.5076 41.2362 40.7363 41.2362 43.5646C41.2362 43.8788 40.9814 44.1337 40.6671 44.1337C40.3528 44.1337 40.098 43.8788 40.098 43.5646C40.098 41.2458 39.0478 40.3074 38.281 39.6225C37.7334 39.1333 37.052 38.5245 37.5728 37.6388L43.5389 27.4935C43.6411 27.3197 43.8278 27.2129 44.0295 27.2129C44.2312 27.2129 44.4179 27.3197 44.5201 27.4935L50.4861 37.6388C51.007 38.5244 50.3256 39.1333 49.778 39.6225C49.0112 40.3076 47.961 41.2458 47.961 43.5646C47.9611 43.8788 47.7063 44.1337 47.392 44.1337Z" fill="#223039"/>
<path d="M44.0296 35.4021C43.7153 35.4021 43.4604 35.1472 43.4604 34.833V27.782C43.4604 27.4677 43.7153 27.2129 44.0296 27.2129C44.3438 27.2129 44.5987 27.4677 44.5987 27.782V34.833C44.5987 35.1474 44.3438 35.4021 44.0296 35.4021Z" fill="#223039"/>
<path d="M44.0296 39.1368C42.6862 39.1368 41.5932 38.0437 41.5932 36.7004C41.5932 35.357 42.6862 34.264 44.0296 34.264C45.373 34.264 46.4661 35.357 46.4661 36.7004C46.4661 38.0438 45.373 39.1368 44.0296 39.1368ZM44.0296 35.4022C43.3138 35.4022 42.7314 35.9846 42.7314 36.7004C42.7314 37.4162 43.3138 37.9985 44.0296 37.9985C44.7455 37.9985 45.3278 37.4162 45.3278 36.7004C45.3278 35.9846 44.7455 35.4022 44.0296 35.4022ZM59.9803 36.656C59.7051 36.656 59.4631 36.456 59.4188 36.1757C58.3523 29.4276 52.8782 24.0847 46.1067 23.1829C45.7952 23.1415 45.5763 22.8552 45.6178 22.5437C45.6592 22.2322 45.9442 22.0127 46.257 22.0547C49.8443 22.5324 53.1145 24.1279 55.714 26.6686C58.3095 29.2051 59.9794 32.4311 60.543 35.998C60.5922 36.3085 60.3801 36.5999 60.0697 36.649C60.0398 36.6536 60.0098 36.656 59.9803 36.656ZM28.0789 36.6559C28.0493 36.6559 28.0195 36.6536 27.9894 36.6489C27.6789 36.5998 27.467 36.3083 27.5161 35.9979C28.0798 32.4311 29.7497 29.205 32.3451 26.6685C34.9446 24.1279 38.2148 22.5324 41.8021 22.0546C42.1147 22.0137 42.3999 22.2322 42.4413 22.5436C42.4829 22.8551 42.2639 23.1414 41.9524 23.1828C35.1809 24.0846 29.7069 29.4275 28.6403 36.1756C28.596 36.4559 28.354 36.6559 28.0789 36.6559Z" fill="#223039"/>
<path d="M28.9535 40.9604H26.8064C25.8977 40.9604 25.1585 40.2211 25.1585 39.3125V37.1654C25.1585 36.2567 25.8977 35.5175 26.8064 35.5175H28.9535C29.8621 35.5175 30.6014 36.2567 30.6014 37.1654V39.3125C30.6014 40.2212 29.8621 40.9604 28.9535 40.9604ZM26.8064 36.6558C26.5253 36.6558 26.2967 36.8844 26.2967 37.1655V39.3126C26.2967 39.5936 26.5253 39.8223 26.8064 39.8223H28.9535C29.2345 39.8223 29.4632 39.5936 29.4632 39.3126V37.1655C29.4632 36.8844 29.2345 36.6558 28.9535 36.6558H26.8064ZM61.253 40.9604H59.106C58.1973 40.9604 57.4579 40.2211 57.4579 39.3125V37.1654C57.4579 36.2567 58.1972 35.5175 59.106 35.5175H61.253C62.1616 35.5175 62.901 36.2567 62.901 37.1654V39.3125C62.901 40.2212 62.1617 40.9604 61.253 40.9604ZM59.106 36.6558C58.8248 36.6558 58.5962 36.8844 58.5962 37.1655V39.3126C58.5962 39.5936 58.8248 39.8223 59.106 39.8223H61.253C61.5341 39.8223 61.7628 39.5936 61.7628 39.3126V37.1655C61.7628 36.8844 61.5341 36.6558 61.253 36.6558H59.106ZM45.1031 25.1968H42.9561C42.0475 25.1968 41.3081 24.4576 41.3081 23.5488V21.4018C41.3081 20.4932 42.0474 19.7539 42.9561 19.7539H45.1031C46.0117 19.7539 46.7511 20.4932 46.7511 21.4018V23.5488C46.7511 24.4576 46.0119 25.1968 45.1031 25.1968ZM42.9562 20.8921C42.6752 20.8921 42.4464 21.1208 42.4464 21.4018V23.5488C42.4464 23.8298 42.6751 24.0586 42.9562 24.0586H45.1032C45.3844 24.0586 45.613 23.83 45.613 23.5488V21.4018C45.613 21.1208 45.3844 20.8921 45.1032 20.8921H42.9562ZM26.8011 25.34H24.654C23.7454 25.34 23.0061 24.6008 23.0061 23.6921V21.545C23.0061 20.6364 23.7454 19.8971 24.654 19.8971H26.8011C27.7098 19.8971 28.449 20.6364 28.449 21.545V23.6921C28.449 24.6008 27.7098 25.34 26.8011 25.34ZM24.654 21.0353C24.373 21.0353 24.1443 21.264 24.1443 21.545V23.6921C24.1443 23.9731 24.373 24.2018 24.654 24.2018H26.8011C27.0822 24.2018 27.3108 23.9731 27.3108 23.6921V21.545C27.3108 21.264 27.0822 21.0353 26.8011 21.0353H24.654ZM63.4053 25.34H61.2583C60.3497 25.34 59.6103 24.6008 59.6103 23.6921V21.545C59.6103 20.6364 60.3496 19.8971 61.2583 19.8971H63.4053C64.314 19.8971 65.0533 20.6364 65.0533 21.545V23.6921C65.0533 24.6008 64.3141 25.34 63.4053 25.34ZM61.2583 21.0353C60.9772 21.0353 60.7485 21.264 60.7485 21.545V23.6921C60.7485 23.9731 60.9772 24.2018 61.2583 24.2018H63.4053C63.6865 24.2018 63.9151 23.9731 63.9151 23.6921V21.545C63.9151 21.264 63.6865 21.0353 63.4053 21.0353H61.2583Z" fill="#223039"/>
<path d="M31.6872 23.756C29.7505 23.756 27.8799 23.3452 27.7555 23.3173C27.4489 23.2487 27.2559 22.9444 27.3244 22.6378C27.3931 22.3311 27.6971 22.1382 28.004 22.2065C29.2516 22.485 32.8263 23.0135 34.3637 22.1259C36.5642 20.8553 41.4552 21.9369 42.0058 22.0643C42.3118 22.1353 42.5026 22.4409 42.4317 22.747C42.3608 23.0532 42.0551 23.2441 41.749 23.1732C40.374 22.8554 36.4689 22.2247 34.9328 23.1116C34.0834 23.6018 32.8729 23.756 31.6872 23.756ZM56.3718 23.756C55.1859 23.756 53.9757 23.602 53.1263 23.1116C51.5876 22.2232 47.6842 22.8548 46.3102 23.1732C46.0047 23.2441 45.6983 23.0534 45.6273 22.7472C45.5564 22.441 45.7472 22.1353 46.0534 22.0643C46.6038 21.9369 51.4948 20.8554 53.6954 22.1259C55.2357 23.0151 58.8082 22.4856 60.055 22.2065C60.3606 22.1382 60.6658 22.3307 60.7346 22.6375C60.8033 22.9443 60.6103 23.2485 60.3036 23.3173C60.1791 23.3451 58.3083 23.7558 56.3718 23.756ZM33.5245 50.367H23.9251C23.6108 50.367 23.356 50.1123 23.356 49.7979C23.356 49.4835 23.6108 49.2288 23.9251 49.2288H33.5244C33.8387 49.2288 34.0935 49.4835 34.0935 49.7979C34.0935 50.1123 33.8388 50.367 33.5245 50.367ZM33.5245 53.0839H23.9251C23.6108 53.0839 23.356 52.8292 23.356 52.5148C23.356 52.2004 23.6108 51.9457 23.9251 51.9457H33.5244C33.8387 51.9457 34.0935 52.2004 34.0935 52.5148C34.0935 52.8292 33.8388 53.0839 33.5245 53.0839ZM28.7248 55.8007H23.9251C23.6108 55.8007 23.356 55.546 23.356 55.2316C23.356 54.9172 23.6108 54.6625 23.9251 54.6625H28.7247C29.0389 54.6625 29.2938 54.9172 29.2938 55.2316C29.2938 55.546 29.039 55.8007 28.7248 55.8007ZM64.134 50.367H54.5346C54.2203 50.367 53.9655 50.1123 53.9655 49.7979C53.9655 49.4835 54.2203 49.2288 54.5346 49.2288H64.134C64.4483 49.2288 64.7031 49.4835 64.7031 49.7979C64.7031 50.1123 64.4482 50.367 64.134 50.367ZM64.134 53.0839H54.5346C54.2203 53.0839 53.9655 52.8292 53.9655 52.5148C53.9655 52.2004 54.2203 51.9457 54.5346 51.9457H64.134C64.4483 51.9457 64.7031 52.2004 64.7031 52.5148C64.7031 52.8292 64.4482 53.0839 64.134 53.0839ZM64.134 55.8007H59.3344C59.02 55.8007 58.7653 55.546 58.7653 55.2316C58.7653 54.9172 59.02 54.6625 59.3344 54.6625H64.134C64.4483 54.6625 64.7031 54.9172 64.7031 55.2316C64.7031 55.546 64.4482 55.8007 64.134 55.8007Z" fill="#223039"/>
<path d="M65.0816 61.5836H22.9773C20.7153 61.5836 18.875 59.7434 18.875 57.4813V32.16C18.875 29.8979 20.7153 28.0576 22.9773 28.0576H31.3472C31.6614 28.0576 31.9163 28.3125 31.9163 28.6267C31.9163 28.941 31.6614 29.1958 31.3472 29.1958H22.9773C21.343 29.1958 20.0132 30.5256 20.0132 32.16V57.4814C20.0132 59.1158 21.3429 60.4455 22.9773 60.4455H65.0816C66.716 60.4455 68.0457 59.1158 68.0457 57.4814V32.16C68.0457 30.5255 66.716 29.1958 65.0816 29.1958H56.7119C56.3975 29.1958 56.1428 28.941 56.1428 28.6267C56.1428 28.3125 56.3975 28.0576 56.7119 28.0576H65.0816C67.3437 28.0576 69.1839 29.8979 69.1839 32.16V57.4814C69.1839 59.7434 67.3437 61.5836 65.0816 61.5836Z" fill="#223039"/>
<path d="M51.2138 64.1382H36.8455C36.5312 64.1382 36.2764 63.8835 36.2764 63.5691C36.2764 63.2547 36.5312 63 36.8455 63H51.2138C51.5282 63 51.7829 63.2547 51.7829 63.5691C51.7829 63.8835 51.5282 64.1382 51.2138 64.1382Z" fill="#223039"/>
<rect x="23" y="54" width="7" height="3" rx="1" fill="#68A706"/>
</g>
<defs>
<filter id="filter0_b_116_273" x="-4" y="-4" width="96" height="96" filterUnits="userSpaceOnUse" color-interpolation-filters="sRGB">
<feFlood flood-opacity="0" result="BackgroundImageFix"/>
<feGaussianBlur in="BackgroundImageFix" stdDeviation="2"/>
<feComposite in2="SourceAlpha" operator="in" result="effect1_backgroundBlur_116_273"/>
<feBlend mode="normal" in="SourceGraphic" in2="effect1_backgroundBlur_116_273" result="shape"/>
</filter>
</defs>
</svg>
