<svg width="88" height="88" viewBox="0 0 88 88" fill="none" xmlns="http://www.w3.org/2000/svg">
<g filter="url(#filter0_b_116_312)">
<rect width="88" height="88" rx="8" fill="#F7F7F7" fill-opacity="0.5"/>
<rect x="0.5" y="0.5" width="87" height="87" rx="7.5" stroke="#D0D5DD"/>
<g clip-path="url(#clip0_116_312)">
<path d="M66.0938 16H21.9062C20.3403 16.0017 18.8391 16.6246 17.7318 17.7318C16.6246 18.8391 16.0017 20.3403 16 21.9062V54.7188C16.0017 56.2847 16.6246 57.7859 17.7318 58.8932C18.8391 60.0004 20.3403 60.6233 21.9062 60.625H35.0645C34.4953 62.6608 33.3432 64.4857 31.75 65.875H30.6562C29.7863 65.8759 28.9522 66.2219 28.3371 66.8371C27.7219 67.4522 27.3759 68.2863 27.375 69.1562V70.0312C27.3756 70.5532 27.5832 71.0536 27.9523 71.4227C28.3214 71.7918 28.8218 71.9994 29.3438 72H58.6562C59.1782 71.9994 59.6786 71.7918 60.0477 71.4227C60.4168 71.0536 60.6244 70.5532 60.625 70.0312V69.1562C60.6241 68.2863 60.2781 67.4522 59.6629 66.8371C59.0478 66.2219 58.2137 65.8759 57.3438 65.875H56.2587C54.6652 64.4859 53.5127 62.6609 52.9434 60.625H66.0938C67.6597 60.6233 69.1609 60.0004 70.2682 58.8932C71.3754 57.7859 71.9983 56.2847 72 54.7188V21.9062C71.9983 20.3403 71.3754 18.8391 70.2682 17.7318C69.1609 16.6246 67.6597 16.0017 66.0938 16ZM17.3125 21.9062C17.3139 20.6883 17.7983 19.5207 18.6595 18.6595C19.5207 17.7983 20.6883 17.3139 21.9062 17.3125H51V51.875H17.3125V21.9062ZM57.3438 67.1875C57.8657 67.1881 58.3661 67.3957 58.7352 67.7648C59.1043 68.1339 59.3119 68.6343 59.3125 69.1562V70.0312C59.3125 70.2053 59.2434 70.3722 59.1203 70.4953C58.9972 70.6184 58.8303 70.6875 58.6562 70.6875H29.3438C29.1697 70.6875 29.0028 70.6184 28.8797 70.4953C28.7566 70.3722 28.6875 70.2053 28.6875 70.0312V69.1562C28.6881 68.6343 28.8957 68.1339 29.2648 67.7648C29.6339 67.3957 30.1343 67.1881 30.6562 67.1875H57.3438ZM54.3924 65.875H33.6155C34.9699 64.3843 35.9321 62.5802 36.4155 60.625H51.5906C52.0744 62.5804 53.0373 64.3846 54.3924 65.875ZM70.6875 54.7188C70.6861 55.9367 70.2017 57.1043 69.3405 57.9655C68.4793 58.8267 67.3117 59.3111 66.0938 59.3125H21.9062C20.6883 59.3111 19.5207 58.8267 18.6595 57.9655C17.7983 57.1043 17.3139 55.9367 17.3125 54.7188V53.1875H70.6875V54.7188ZM70.6875 51.875H52.3125V17.3125H66.0938C67.3117 17.3139 68.4793 17.7983 69.3405 18.6595C70.2017 19.5207 70.6861 20.6883 70.6875 21.9062V51.875Z" fill="#223039"/>
<path d="M44 57.125C44.4832 57.125 44.875 56.7332 44.875 56.25C44.875 55.7668 44.4832 55.375 44 55.375C43.5168 55.375 43.125 55.7668 43.125 56.25C43.125 56.7332 43.5168 57.125 44 57.125Z" fill="#223039"/>
<path d="M46.8438 19.9375H21.4688C20.9468 19.9381 20.4464 20.1457 20.0773 20.5148C19.7082 20.8839 19.5006 21.3843 19.5 21.9062V34.1562C19.5006 34.6782 19.7082 35.1786 20.0773 35.5477C20.4464 35.9168 20.9468 36.1244 21.4688 36.125H46.8438C47.3657 36.1244 47.8661 35.9168 48.2352 35.5477C48.6043 35.1786 48.8119 34.6782 48.8125 34.1562V21.9062C48.8119 21.3843 48.6043 20.8839 48.2352 20.5148C47.8661 20.1457 47.3657 19.9381 46.8438 19.9375ZM47.5 34.1562C47.5 34.3303 47.4309 34.4972 47.3078 34.6203C47.1847 34.7434 47.0178 34.8125 46.8438 34.8125H21.4688C21.2947 34.8125 21.1278 34.7434 21.0047 34.6203C20.8816 34.4972 20.8125 34.3303 20.8125 34.1562V21.9062C20.8125 21.7322 20.8816 21.5653 21.0047 21.4422C21.1278 21.3191 21.2947 21.25 21.4688 21.25H46.8438C47.0178 21.25 47.1847 21.3191 47.3078 21.4422C47.4309 21.5653 47.5 21.7322 47.5 21.9062V34.1562ZM31.0938 38.3125H21.4688C20.9468 38.3131 20.4464 38.5207 20.0773 38.8898C19.7082 39.2589 19.5006 39.7593 19.5 40.2812V47.2812C19.5006 47.8032 19.7082 48.3036 20.0773 48.6727C20.4464 49.0418 20.9468 49.2494 21.4688 49.25H31.0938C31.6157 49.2494 32.1161 49.0418 32.4852 48.6727C32.8543 48.3036 33.0619 47.8032 33.0625 47.2812V40.2812C33.0619 39.7593 32.8543 39.2589 32.4852 38.8898C32.1161 38.5207 31.6157 38.3131 31.0938 38.3125ZM31.75 47.2812C31.75 47.4553 31.6809 47.6222 31.5578 47.7453C31.4347 47.8684 31.2678 47.9375 31.0938 47.9375H21.4688C21.2947 47.9375 21.1278 47.8684 21.0047 47.7453C20.8816 47.6222 20.8125 47.4553 20.8125 47.2812V40.2812C20.8125 40.1072 20.8816 39.9403 21.0047 39.8172C21.1278 39.6941 21.2947 39.625 21.4688 39.625H31.0938C31.2678 39.625 31.4347 39.6941 31.5578 39.8172C31.6809 39.9403 31.75 40.1072 31.75 40.2812V47.2812ZM46.8438 38.3125H37.2188C36.6968 38.3131 36.1964 38.5207 35.8273 38.8898C35.4582 39.2589 35.2506 39.7593 35.25 40.2812V47.2812C35.2506 47.8032 35.4582 48.3036 35.8273 48.6727C36.1964 49.0418 36.6968 49.2494 37.2188 49.25H46.8438C47.3657 49.2494 47.8661 49.0418 48.2352 48.6727C48.6043 48.3036 48.8119 47.8032 48.8125 47.2812V40.2812C48.8119 39.7593 48.6043 39.2589 48.2352 38.8898C47.8661 38.5207 47.3657 38.3131 46.8438 38.3125ZM47.5 47.2812C47.5 47.4553 47.4309 47.6222 47.3078 47.7453C47.1847 47.8684 47.0178 47.9375 46.8438 47.9375H37.2188C37.0447 47.9375 36.8778 47.8684 36.7547 47.7453C36.6316 47.6222 36.5625 47.4553 36.5625 47.2812V40.2812C36.5625 40.1072 36.6316 39.9403 36.7547 39.8172C36.8778 39.6941 37.0447 39.625 37.2188 39.625H46.8438C47.0178 39.625 47.1847 39.6941 47.3078 39.8172C47.4309 39.9403 47.5 40.1072 47.5 40.2812V47.2812ZM66.9688 47.9375H56.0312C55.8572 47.9375 55.6903 48.0066 55.5672 48.1297C55.4441 48.2528 55.375 48.4197 55.375 48.5938C55.375 48.7678 55.4441 48.9347 55.5672 49.0578C55.6903 49.1809 55.8572 49.25 56.0312 49.25H66.9688C67.1428 49.25 67.3097 49.1809 67.4328 49.0578C67.5559 48.9347 67.625 48.7678 67.625 48.5938C67.625 48.4197 67.5559 48.2528 67.4328 48.1297C67.3097 48.0066 67.1428 47.9375 66.9688 47.9375ZM66.9688 43.5625H56.0312C55.8572 43.5625 55.6903 43.6316 55.5672 43.7547C55.4441 43.8778 55.375 44.0447 55.375 44.2188C55.375 44.3928 55.4441 44.5597 55.5672 44.6828C55.6903 44.8059 55.8572 44.875 56.0312 44.875H66.9688C67.1428 44.875 67.3097 44.8059 67.4328 44.6828C67.5559 44.5597 67.625 44.3928 67.625 44.2188C67.625 44.0447 67.5559 43.8778 67.4328 43.7547C67.3097 43.6316 67.1428 43.5625 66.9688 43.5625ZM66.9688 39.1875H56.0312C55.8572 39.1875 55.6903 39.2566 55.5672 39.3797C55.4441 39.5028 55.375 39.6697 55.375 39.8438C55.375 40.0178 55.4441 40.1847 55.5672 40.3078C55.6903 40.4309 55.8572 40.5 56.0312 40.5H66.9688C67.1428 40.5 67.3097 40.4309 67.4328 40.3078C67.5559 40.1847 67.625 40.0178 67.625 39.8438C67.625 39.6697 67.5559 39.5028 67.4328 39.3797C67.3097 39.2566 67.1428 39.1875 66.9688 39.1875ZM66.9688 34.8125H56.0312C55.8572 34.8125 55.6903 34.8816 55.5672 35.0047C55.4441 35.1278 55.375 35.2947 55.375 35.4688C55.375 35.6428 55.4441 35.8097 55.5672 35.9328C55.6903 36.0559 55.8572 36.125 56.0312 36.125H66.9688C67.1428 36.125 67.3097 36.0559 67.4328 35.9328C67.5559 35.8097 67.625 35.6428 67.625 35.4688C67.625 35.2947 67.5559 35.1278 67.4328 35.0047C67.3097 34.8816 67.1428 34.8125 66.9688 34.8125ZM60.1761 30.6195C60.3404 30.677 60.5207 30.6668 60.6775 30.5914C60.8343 30.5159 60.9547 30.3812 61.0122 30.217L63.1559 24.092C63.1844 24.0106 63.1966 23.9245 63.1918 23.8384C63.187 23.7523 63.1653 23.6681 63.1279 23.5904C63.0906 23.5127 63.0382 23.4432 62.974 23.3857C62.9097 23.3282 62.8348 23.284 62.7534 23.2555C62.6721 23.227 62.5859 23.2148 62.4998 23.2196C62.4138 23.2244 62.3295 23.2461 62.2518 23.2835C62.1741 23.3209 62.1046 23.3732 62.0471 23.4374C61.9897 23.5017 61.9454 23.5766 61.9169 23.658L59.7732 29.783C59.7447 29.8644 59.7325 29.9506 59.7373 30.0367C59.7421 30.1228 59.7639 30.2071 59.8013 30.2848C59.8387 30.3624 59.8911 30.432 59.9554 30.4894C60.0197 30.5469 60.0947 30.5911 60.1761 30.6195ZM58.1505 30.5219C58.2887 30.4165 58.3793 30.2605 58.4026 30.0883C58.4259 29.916 58.3799 29.7416 58.2747 29.6032L56.2456 26.9375L58.2747 24.2727C58.3772 24.1341 58.4211 23.9607 58.3968 23.79C58.3724 23.6193 58.2819 23.465 58.1448 23.3606C58.0077 23.2561 57.8349 23.2097 57.6639 23.2316C57.4929 23.2534 57.3373 23.3417 57.2309 23.4773L54.899 26.5398C54.8119 26.6541 54.7648 26.7938 54.7648 26.9375C54.7648 27.0812 54.8119 27.2209 54.899 27.3352L57.2309 30.3977C57.3364 30.5361 57.4925 30.6269 57.665 30.6502C57.8374 30.6735 58.0121 30.6274 58.1505 30.5219ZM65.7617 23.4764C65.656 23.3381 65.4997 23.2475 65.3271 23.2244C65.1546 23.2014 64.9799 23.2478 64.8416 23.3535C64.7033 23.4592 64.6127 23.6155 64.5896 23.7881C64.5665 23.9606 64.613 24.1353 64.7187 24.2736L66.7535 26.9375L64.7187 29.6014C64.613 29.7397 64.5665 29.9144 64.5896 30.0869C64.6127 30.2595 64.7033 30.4158 64.8416 30.5215C64.9799 30.6272 65.1546 30.6736 65.3271 30.6506C65.4997 30.6275 65.656 30.5369 65.7617 30.3986L68.1006 27.3361C68.1881 27.2216 68.2355 27.0816 68.2355 26.9375C68.2355 26.7934 68.1881 26.6534 68.1006 26.5389L65.7617 23.4764Z" fill="#223039"/>
<rect x="19.5" y="38.3125" width="13.5625" height="10.9375" rx="2" fill="#68A706"/>
</g>
</g>
<defs>
<filter id="filter0_b_116_312" x="-4" y="-4" width="96" height="96" filterUnits="userSpaceOnUse" color-interpolation-filters="sRGB">
<feFlood flood-opacity="0" result="BackgroundImageFix"/>
<feGaussianBlur in="BackgroundImageFix" stdDeviation="2"/>
<feComposite in2="SourceAlpha" operator="in" result="effect1_backgroundBlur_116_312"/>
<feBlend mode="normal" in="SourceGraphic" in2="effect1_backgroundBlur_116_312" result="shape"/>
</filter>
<clipPath id="clip0_116_312">
<rect width="56" height="56" fill="white" transform="translate(16 16)"/>
</clipPath>
</defs>
</svg>
