<svg width="88" height="88" viewBox="0 0 88 88" fill="none" xmlns="http://www.w3.org/2000/svg">
<g filter="url(#filter0_b_116_342)">
<rect width="88" height="88" rx="8" fill="#F7F7F7" fill-opacity="0.5"/>
<rect x="0.5" y="0.5" width="87" height="87" rx="7.5" stroke="#D0D5DD"/>
<path d="M21.184 67.176C21.144 67.176 21.096 67.168 21.056 67.152C19.312 66.568 18.136 64.944 18.136 63.104V22.44C18.136 20.088 20.056 18.168 22.408 18.168H63.144C64.984 18.168 66.616 19.344 67.192 21.088C67.264 21.296 67.152 21.52 66.936 21.592C66.728 21.664 66.504 21.552 66.432 21.336C65.96 19.912 64.632 18.96 63.136 18.96H22.408C20.496 18.96 18.936 20.52 18.936 22.432V63.096C18.936 64.592 19.888 65.912 21.312 66.392C21.52 66.464 21.632 66.688 21.568 66.896C21.504 67.072 21.352 67.176 21.184 67.176Z" fill="#223039"/>
<path d="M65.592 69.832H24.856C22.496 69.832 20.584 67.912 20.584 65.56V24.896C20.584 22.536 22.504 20.624 24.856 20.624H65.592C67.952 20.624 69.864 22.544 69.864 24.896V65.56C69.864 67.912 67.944 69.832 65.592 69.832ZM24.856 21.416C22.936 21.416 21.384 22.976 21.384 24.888V65.552C21.384 67.472 22.944 69.024 24.856 69.024H65.592C67.512 69.024 69.064 67.464 69.064 65.552V24.896C69.064 22.976 67.504 21.424 65.592 21.424H24.856V21.416Z" fill="#223039"/>
<path d="M69.4639 31.0721H61.0239C60.4479 31.0721 59.8879 30.8321 59.4799 30.4161L58.6399 29.5441C58.3919 29.2801 58.0399 29.1361 57.6719 29.1361H51.3519C50.9919 29.1361 50.6399 29.2881 50.3839 29.5441L49.5439 30.4161C49.1439 30.8321 48.5839 31.0721 47.9999 31.0721H20.9759C20.7519 31.0721 20.5759 30.8961 20.5759 30.6721C20.5759 30.4481 20.7519 30.2721 20.9759 30.2721H48.0079C48.3679 30.2721 48.7199 30.1201 48.9759 29.8641L49.8159 28.9921C50.2159 28.5761 50.7759 28.3361 51.3599 28.3361H57.6799C58.2559 28.3361 58.8239 28.5761 59.2239 28.9921L60.0639 29.8641C60.3119 30.1281 60.6639 30.2721 61.0319 30.2721H69.4719C69.6959 30.2721 69.8719 30.4481 69.8719 30.6721C69.8719 30.8961 69.6879 31.0721 69.4639 31.0721ZM25.3999 27.4001C24.5439 27.4001 23.8399 26.7041 23.8399 25.8401C23.8399 24.9761 24.5359 24.2881 25.3999 24.2881C26.2639 24.2881 26.9519 24.9841 26.9519 25.8401C26.9519 26.6961 26.2559 27.4001 25.3999 27.4001ZM25.3999 25.0881C24.9839 25.0881 24.6399 25.4241 24.6399 25.8401C24.6399 26.2561 24.9759 26.6001 25.3999 26.6001C25.8159 26.6001 26.1519 26.2641 26.1519 25.8401C26.1519 25.4321 25.8159 25.0881 25.3999 25.0881ZM29.5999 27.4001C28.7439 27.4001 28.0399 26.7041 28.0399 25.8401C28.0399 24.9761 28.7359 24.2881 29.5999 24.2881C30.4639 24.2881 31.1599 24.9841 31.1599 25.8401C31.1599 26.6961 30.4559 27.4001 29.5999 27.4001ZM29.5999 25.0881C29.1839 25.0881 28.8399 25.4241 28.8399 25.8401C28.8399 26.2561 29.1759 26.6001 29.5999 26.6001C30.0239 26.6001 30.3599 26.2641 30.3599 25.8401C30.3519 25.4321 30.0159 25.0881 29.5999 25.0881ZM33.7919 27.4001C32.9359 27.4001 32.2399 26.7041 32.2399 25.8401C32.2399 24.9761 32.9359 24.2881 33.7919 24.2881C34.6479 24.2881 35.3519 24.9841 35.3519 25.8401C35.3519 26.6961 34.6559 27.4001 33.7919 27.4001ZM33.7919 25.0881C33.3759 25.0881 33.0399 25.4241 33.0399 25.8401C33.0399 26.2561 33.3759 26.6001 33.7919 26.6001C34.2079 26.6001 34.5519 26.2641 34.5519 25.8401C34.5519 25.4321 34.2079 25.0881 33.7919 25.0881ZM66.1999 26.2481H48.0479C47.8239 26.2481 47.6479 26.0721 47.6479 25.8481C47.6479 25.6241 47.8239 25.4481 48.0479 25.4481H66.1999C66.4239 25.4481 66.5999 25.6241 66.5999 25.8481C66.5999 26.0721 66.4239 26.2481 66.1999 26.2481ZM40.8239 65.8321H24.9759C24.7519 65.8321 24.5759 65.6561 24.5759 65.4321C24.5759 65.2081 24.7519 65.0321 24.9759 65.0321H40.8239C41.0479 65.0321 41.2239 65.2081 41.2239 65.4321C41.2239 65.6561 41.0479 65.8321 40.8239 65.8321ZM50.1599 65.8321H43.6239C43.3999 65.8321 43.2239 65.6561 43.2239 65.4321C43.2239 65.2081 43.3999 65.0321 43.6239 65.0321H50.1599C50.3839 65.0321 50.5599 65.2081 50.5599 65.4321C50.5599 65.6561 50.3759 65.8321 50.1599 65.8321ZM29.4879 60.8401H24.9759C24.7519 60.8401 24.5759 60.6641 24.5759 60.4401C24.5759 60.2161 24.7519 60.0401 24.9759 60.0401H29.4879C29.7119 60.0401 29.8879 60.2161 29.8879 60.4401C29.8879 60.6641 29.7119 60.8401 29.4879 60.8401ZM57.8239 60.8401H32.4879C32.2639 60.8401 32.0879 60.6641 32.0879 60.4401C32.0879 60.2161 32.2639 60.0401 32.4879 60.0401H57.8239C58.0479 60.0401 58.2239 60.2161 58.2239 60.4401C58.2239 60.6641 58.0479 60.8401 57.8239 60.8401ZM65.4639 60.8401H60.4239C60.1999 60.8401 60.0239 60.6641 60.0239 60.4401C60.0239 60.2161 60.1999 60.0401 60.4239 60.0401H65.4639C65.6879 60.0401 65.8639 60.2161 65.8639 60.4401C65.8639 60.6641 65.6879 60.8401 65.4639 60.8401ZM44.5199 56.4001C43.8319 56.4001 43.2239 55.9521 43.0319 55.3041L42.5839 53.8641C42.0799 53.7041 41.5919 53.5121 41.1279 53.2721L39.8159 54.0081C39.1999 54.3441 38.4639 54.2401 37.9839 53.7521L36.8399 52.6241C36.3599 52.1521 36.2399 51.4001 36.5519 50.8081L37.2639 49.4801C37.0159 49.0161 36.8079 48.5361 36.6399 48.0321L35.1999 47.6241C34.5519 47.4321 34.0959 46.8321 34.0879 46.1681L34.0719 44.5521C34.0639 43.8801 34.5039 43.2641 35.1519 43.0641L36.5999 42.6241C36.7519 42.1361 36.9519 41.6481 37.1999 41.1601L36.4639 39.8561C36.1359 39.2561 36.2319 38.5201 36.7039 38.0241L37.8319 36.8721C38.3199 36.3761 39.0559 36.2721 39.6639 36.5841L40.9919 37.2961C41.4639 37.0481 41.9439 36.8401 42.4399 36.6801L42.8559 35.2241C43.0479 34.5681 43.6479 34.1121 44.3199 34.1121L45.9279 34.0961C45.9359 34.0961 45.9439 34.0961 45.9519 34.0961C46.6319 34.0961 47.2239 34.5281 47.4239 35.1841L47.8639 36.6481L49.2959 37.2241L50.6319 36.4721C51.2399 36.1361 51.9759 36.2401 52.4639 36.7121L53.5999 37.8561C54.0879 38.3281 54.1999 39.0801 53.8719 39.6801L53.1679 41.0081C53.3599 41.3681 53.5279 41.7441 53.6719 42.1281C53.7119 42.2401 53.7519 42.3441 53.7839 42.4561L55.2399 42.8641C55.8959 43.0561 56.3519 43.6641 56.3519 44.3361L56.3679 45.9441C56.3759 46.6241 55.9279 47.2401 55.2719 47.4321L53.8399 47.8721C53.8079 47.9761 53.7759 48.0641 53.7439 48.1521C53.5999 48.5681 53.4399 48.9521 53.2559 49.3201L53.9919 50.6241C54.3199 51.2241 54.2239 51.9761 53.7519 52.4561L52.6159 53.6161C52.1359 54.1041 51.3919 54.2161 50.7919 53.8881L49.4559 53.1841C48.9839 53.4321 48.5039 53.6401 48.0159 53.7921L47.6079 55.2401C47.4159 55.8881 46.8159 56.3521 46.1439 56.3601L44.5199 56.4001ZM41.1359 52.4241C41.1999 52.4241 41.2639 52.4401 41.3279 52.4721C41.8639 52.7601 42.4319 52.9921 43.0239 53.1601C43.1519 53.2001 43.2559 53.2961 43.2959 53.4241L43.8079 55.0721C43.9039 55.3841 44.1919 55.6001 44.5199 55.6001L46.1279 55.5841C46.4559 55.5761 46.7439 55.3521 46.8399 55.0401L47.3119 53.3841C47.3519 53.2481 47.4559 53.1441 47.5839 53.1121C48.1519 52.9441 48.7119 52.7121 49.2639 52.4001C49.3839 52.3361 49.5279 52.3361 49.6479 52.3921L51.1759 53.2001C51.4639 53.3601 51.8239 53.3041 52.0479 53.0721L53.1839 51.9121C53.4079 51.6801 53.4559 51.3201 53.3039 51.0321L52.4559 49.5361C52.3919 49.4161 52.3839 49.2721 52.4559 49.1521C52.6639 48.7601 52.8479 48.3521 52.9999 47.8961C53.0479 47.7601 53.0959 47.6161 53.1359 47.4801C53.1759 47.3521 53.2799 47.2161 53.4079 47.1841L55.0559 46.6721C55.3759 46.5761 55.5839 46.2961 55.5839 45.9601L55.5679 44.3441C55.5679 44.0161 55.3519 43.7281 55.0319 43.6321L53.3759 43.1601C53.2479 43.1201 53.1439 43.0241 53.1039 42.8881C53.0479 42.7121 52.9999 42.5601 52.9359 42.3921C52.7839 41.9841 52.5999 41.5841 52.3839 41.2001C52.3199 41.0801 52.3119 40.9361 52.3759 40.8161L53.1839 39.2961C53.3439 39.0081 53.2879 38.6481 53.0559 38.4241L51.9039 37.2881C51.6719 37.0561 51.3119 37.0161 51.0239 37.1761L49.5199 38.0161C49.4159 38.0721 49.2879 38.0801 49.1759 38.0401L47.3919 37.3201C47.2799 37.2721 47.1919 37.1841 47.1599 37.0641L46.6639 35.4161C46.5679 35.0961 46.3039 34.8641 45.9439 34.8961L44.3279 34.9121C44.0079 34.9121 43.7199 35.1281 43.6239 35.4481L43.1439 37.1121C43.1039 37.2401 43.0079 37.3441 42.8719 37.3841C42.2879 37.5601 41.7359 37.7921 41.1839 38.1041C41.0639 38.1681 40.9199 38.1681 40.7999 38.1041L39.2879 37.2881C38.9999 37.1361 38.6399 37.1921 38.4079 37.4321L37.2799 38.5841C37.0559 38.8241 37.0079 39.1761 37.1679 39.4641L38.0159 40.9601C38.0799 41.0801 38.0879 41.2241 38.0159 41.3521C37.7119 41.9121 37.4799 42.4801 37.3199 43.0561C37.2799 43.1921 37.1839 43.2961 37.0479 43.3361L35.3919 43.8401C35.0879 43.9361 34.8719 44.2321 34.8799 44.5521L34.8959 46.1681C34.9039 46.4881 35.1199 46.7761 35.4319 46.8721L37.0879 47.3521C37.2159 47.3921 37.3199 47.4881 37.3599 47.6161C37.5439 48.2081 37.7839 48.7761 38.0879 49.3121C38.1519 49.4321 38.1599 49.5761 38.0879 49.6961L37.2719 51.2081C37.1199 51.4961 37.1759 51.8561 37.4079 52.0801L38.5519 53.2081C38.7839 53.4401 39.1359 53.4881 39.4319 53.3281L40.9359 52.4961C40.9999 52.4401 41.0639 52.4241 41.1359 52.4241Z" fill="#223039"/>
<path d="M45.224 50.7839C42.168 50.7839 39.688 48.2959 39.688 45.2479C39.688 42.1999 42.176 39.7119 45.224 39.7119C48.272 39.7119 50.76 42.1999 50.76 45.2479C50.76 48.2959 48.272 50.7839 45.224 50.7839ZM45.224 40.5119C42.608 40.5119 40.488 42.6399 40.488 45.2479C40.488 47.8559 42.616 49.9839 45.224 49.9839C47.832 49.9839 49.96 47.8559 49.96 45.2479C49.96 42.6399 47.832 40.5119 45.224 40.5119Z" fill="#223039"/>
</g>
<defs>
<filter id="filter0_b_116_342" x="-4" y="-4" width="96" height="96" filterUnits="userSpaceOnUse" color-interpolation-filters="sRGB">
<feFlood flood-opacity="0" result="BackgroundImageFix"/>
<feGaussianBlur in="BackgroundImageFix" stdDeviation="2"/>
<feComposite in2="SourceAlpha" operator="in" result="effect1_backgroundBlur_116_342"/>
<feBlend mode="normal" in="SourceGraphic" in2="effect1_backgroundBlur_116_342" result="shape"/>
</filter>
</defs>
</svg>
