<svg width="88" height="88" viewBox="0 0 88 88" fill="none" xmlns="http://www.w3.org/2000/svg">
<g filter="url(#filter0_b_116_332)">
<rect width="88" height="88" rx="8" fill="#F7F7F7" fill-opacity="0.5"/>
<rect x="0.5" y="0.5" width="87" height="87" rx="7.5" stroke="#D0D5DD"/>
<path d="M65.0816 61.5836H22.9773C20.7153 61.5836 18.875 59.7434 18.875 57.4813V32.16C18.875 29.8979 20.7153 28.0576 22.9773 28.0576H31.3472C31.6614 28.0576 31.9163 28.3125 31.9163 28.6267C31.9163 28.941 31.6614 29.1958 31.3472 29.1958H22.9773C21.343 29.1958 20.0132 30.5256 20.0132 32.16V57.4814C20.0132 59.1158 21.3429 60.4455 22.9773 60.4455H65.0816C66.716 60.4455 68.0457 59.1158 68.0457 57.4814V32.16C68.0457 30.5255 66.716 29.1958 65.0816 29.1958H56.7119C56.3975 29.1958 56.1428 28.941 56.1428 28.6267C56.1428 28.3125 56.3975 28.0576 56.7119 28.0576H65.0816C67.3437 28.0576 69.1839 29.8979 69.1839 32.16V57.4814C69.1839 59.7434 67.3437 61.5836 65.0816 61.5836Z" fill="#223039"/>
<path d="M51.2138 64.1382H36.8455C36.5312 64.1382 36.2764 63.8835 36.2764 63.5691C36.2764 63.2547 36.5312 63 36.8455 63H51.2138C51.5282 63 51.7829 63.2547 51.7829 63.5691C51.7829 63.8835 51.5282 64.1382 51.2138 64.1382Z" fill="#223039"/>
<path d="M60 33C60 33.827 60.673 34.5 61.5 34.5H63.5C64.327 34.5 65 33.827 65 33C65 32.173 64.327 31.5 63.5 31.5H61.5C60.673 31.5 60 32.173 60 33ZM64 33C64 33.275 63.775 33.5 63.5 33.5H61.5C61.225 33.5 61 33.275 61 33C61 32.725 61.225 32.5 61.5 32.5H63.5C63.775 32.5 64 32.725 64 33ZM59.854 26.525L58.44 27.939C58.159 28.2204 58.0012 28.6018 58.0012 28.9995C58.0012 29.3972 58.159 29.7786 58.44 30.06C58.7217 30.3405 59.103 30.4979 59.5005 30.4979C59.898 30.4979 60.2793 30.3405 60.561 30.06L61.975 28.646C62.256 28.3646 62.4138 27.9832 62.4138 27.5855C62.4138 27.1878 62.256 26.8064 61.975 26.525C61.6933 26.2445 61.312 26.0871 60.9145 26.0871C60.517 26.0871 60.1357 26.2445 59.854 26.525ZM61.268 27.939L59.854 29.353C59.7588 29.4439 59.6322 29.4946 59.5005 29.4946C59.3688 29.4946 59.2422 29.4439 59.147 29.353C59.1005 29.3066 59.0635 29.2515 59.0384 29.1909C59.0132 29.1302 59.0002 29.0652 59.0002 28.9995C59.0002 28.9338 59.0132 28.8688 59.0384 28.8081C59.0635 28.7475 59.1005 28.6924 59.147 28.646L60.561 27.232C60.6071 27.1842 60.6623 27.1462 60.7233 27.1199C60.7843 27.0937 60.8499 27.08 60.9163 27.0794C60.9827 27.0788 61.0485 27.0914 61.11 27.1166C61.1714 27.1417 61.2272 27.1789 61.2742 27.2258C61.3211 27.2727 61.3583 27.3286 61.3834 27.39C61.4086 27.4515 61.4212 27.5173 61.4206 27.5837C61.42 27.6501 61.4063 27.7157 61.3801 27.7767C61.3538 27.8377 61.3158 27.8929 61.268 27.939ZM58.439 38.061L59.853 39.475C60.1347 39.7555 60.516 39.9129 60.9135 39.9129C61.311 39.9129 61.6923 39.7555 61.974 39.475C62.255 39.1936 62.4128 38.8122 62.4128 38.4145C62.4128 38.0168 62.255 37.6354 61.974 37.354L60.56 35.94C60.2783 35.6595 59.897 35.5021 59.4995 35.5021C59.102 35.5021 58.7207 35.6595 58.439 35.94C58.158 36.2214 58.0002 36.6028 58.0002 37.0005C58.0002 37.3982 58.158 37.7796 58.439 38.061ZM59.146 36.646C59.1924 36.5995 59.2475 36.5625 59.3081 36.5374C59.3688 36.5122 59.4338 36.4992 59.4995 36.4992C59.5652 36.4992 59.6302 36.5122 59.6909 36.5374C59.7515 36.5625 59.8066 36.5995 59.853 36.646L61.267 38.06C61.3135 38.1064 61.3505 38.1615 61.3756 38.2221C61.4008 38.2828 61.4138 38.3478 61.4138 38.4135C61.4138 38.4792 61.4008 38.5442 61.3756 38.6049C61.3505 38.6655 61.3135 38.7206 61.267 38.767C61.1718 38.8579 61.0452 38.9086 60.9135 38.9086C60.7818 38.9086 60.6552 38.8579 60.56 38.767L59.146 37.353C59.0523 37.2592 58.9996 37.1321 58.9996 36.9995C58.9996 36.8669 59.0523 36.7398 59.146 36.646ZM24 33C24 33.827 24.673 34.5 25.5 34.5H27.5C28.327 34.5 29 33.827 29 33C29 32.173 28.327 31.5 27.5 31.5H25.5C24.673 31.5 24 32.173 24 33ZM28 33C28 33.1326 27.9473 33.2598 27.8536 33.3536C27.7598 33.4473 27.6326 33.5 27.5 33.5H25.5C25.3674 33.5 25.2402 33.4473 25.1464 33.3536C25.0527 33.2598 25 33.1326 25 33C25 32.8674 25.0527 32.7402 25.1464 32.6464C25.2402 32.5527 25.3674 32.5 25.5 32.5H27.5C27.6326 32.5 27.7598 32.5527 27.8536 32.6464C27.9473 32.7402 28 32.8674 28 33ZM29.146 39.475L30.56 38.061C30.841 37.7796 30.9988 37.3982 30.9988 37.0005C30.9988 36.6028 30.841 36.2214 30.56 35.94C30.2783 35.6595 29.897 35.5021 29.4995 35.5021C29.102 35.5021 28.7207 35.6595 28.439 35.94L27.025 37.354C26.744 37.6354 26.5862 38.0168 26.5862 38.4145C26.5862 38.8122 26.744 39.1936 27.025 39.475C27.3064 39.756 27.6878 39.9138 28.0855 39.9138C28.4832 39.9138 28.8646 39.756 29.146 39.475ZM27.732 38.061L29.146 36.647C29.2403 36.5559 29.3666 36.5055 29.4977 36.5067C29.6288 36.5078 29.7542 36.5604 29.8469 36.6531C29.9396 36.7458 29.9922 36.8712 29.9933 37.0023C29.9945 37.1334 29.9441 37.2597 29.853 37.354L28.439 38.768C28.3438 38.8589 28.2172 38.9096 28.0855 38.9096C27.9538 38.9096 27.8272 38.8589 27.732 38.768C27.6383 38.6742 27.5856 38.5471 27.5856 38.4145C27.5856 38.2819 27.6383 38.1548 27.732 38.061ZM30.561 30.061C30.842 29.7796 30.9998 29.3982 30.9998 29.0005C30.9998 28.6028 30.842 28.2214 30.561 27.94L29.147 26.526C28.8653 26.2455 28.484 26.0881 28.0865 26.0881C27.689 26.0881 27.3077 26.2455 27.026 26.526C26.745 26.8074 26.5872 27.1888 26.5872 27.5865C26.5872 27.9842 26.745 28.3656 27.026 28.647L28.44 30.061C28.7214 30.342 29.1028 30.4998 29.5005 30.4998C29.8982 30.4998 30.2796 30.342 30.561 30.061ZM28.439 27.232L29.853 28.646C29.9467 28.7398 29.9994 28.8669 29.9994 28.9995C29.9994 29.1321 29.9467 29.2592 29.853 29.353C29.7578 29.4439 29.6312 29.4946 29.4995 29.4946C29.3678 29.4946 29.2412 29.4439 29.146 29.353L27.732 27.939C27.268 27.472 27.967 26.76 28.439 27.232ZM43.058 57.39C43.231 58.027 43.809 58.5 44.5 58.5C45.191 58.5 45.769 58.027 45.942 57.39C46.1694 57.4814 46.4158 57.5156 46.6595 57.4897C46.9032 57.4638 47.1369 57.3785 47.34 57.2413C47.5431 57.1042 47.7095 56.9193 47.8246 56.7028C47.9396 56.4864 47.9999 56.2451 48 56V55.408C48.157 55.464 48.324 55.5 48.5 55.5C49.327 55.5 50 54.827 50 54V52H49V54C49 54.275 48.775 54.5 48.5 54.5C48.225 54.5 48 54.275 48 54V53.23H47V56C47 56.275 46.775 56.5 46.5 56.5C46.225 56.5 46 56.275 46 56V54H45V57C45 57.1326 44.9473 57.2598 44.8536 57.3536C44.7598 57.4473 44.6326 57.5 44.5 57.5C44.3674 57.5 44.2402 57.4473 44.1464 57.3536C44.0527 57.2598 44 57.1326 44 57V54H43V56C43 56.1326 42.9473 56.2598 42.8536 56.3536C42.7598 56.4473 42.6326 56.5 42.5 56.5C42.3674 56.5 42.2402 56.4473 42.1464 56.3536C42.0527 56.2598 42 56.1326 42 56V53.23H41C41 53.838 41.108 54.5 40.5 54.5C40.3674 54.5 40.2402 54.4473 40.1464 54.3536C40.0527 54.2598 40 54.1326 40 54V52H39V54C39 54.827 39.673 55.5 40.5 55.5C40.676 55.5 40.843 55.464 41 55.408V56C41.0001 56.2451 41.0604 56.4864 41.1754 56.7028C41.2905 56.9193 41.4569 57.1042 41.66 57.2413C41.8631 57.3785 42.0968 57.4638 42.3405 57.4897C42.5842 57.5156 42.8306 57.4814 43.058 57.39ZM53 49V36C53 29.896 50.524 25.043 46.264 20.776C45.9179 20.4353 45.4776 20.2061 45 20.118V16H44V20.118C43.5225 20.2063 43.0823 20.4355 42.736 20.776C38.448 25.067 36 29.934 36 36V49C36 49.827 36.673 50.5 37.5 50.5H40.5V49.5H37.5C37.3674 49.5 37.2402 49.4473 37.1464 49.3536C37.0527 49.2598 37 49.1326 37 49V48.5H40.5V47.5H37V36C37 30.162 39.371 25.559 43.443 21.483C43.7236 21.2035 44.1035 21.0466 44.4995 21.0466C44.8955 21.0466 45.2754 21.2035 45.556 21.483C49.611 25.543 52 30.138 52 36V47.5H48.5V48.5H52V49C52 49.275 51.775 49.5 51.5 49.5H48.5V50.5H51.5C52.327 50.5 53 49.827 53 49Z" fill="#223039"/>
<path d="M50 32.5C50 29.468 47.532 27 44.5 27C41.467 27 39 29.468 39 32.5C39 35.532 41.467 38 44.5 38C47.532 38 50 35.532 50 32.5ZM44.5 37C42.019 37 40 34.981 40 32.5C40 30.019 42.019 28 44.5 28C46.981 28 49 30.019 49 32.5C49 34.981 46.981 37 44.5 37Z" fill="#223039"/>
<path d="M44.5 29C42.57 29 41 30.57 41 32.5C41 34.43 42.57 36 44.5 36C46.43 36 48 34.43 48 32.5C48 30.57 46.43 29 44.5 29ZM44.5 35C43.122 35 42 33.879 42 32.5C42 31.121 43.122 30 44.5 30C45.879 30 47 31.121 47 32.5C47 33.879 45.879 35 44.5 35ZM32 50.5C32 51.327 32.673 52 33.5 52C34.327 52 35 51.327 35 50.5V48.5H34V50.5C34 50.6326 33.9473 50.7598 33.8536 50.8536C33.7598 50.9473 33.6326 51 33.5 51C33.3674 51 33.2402 50.9473 33.1464 50.8536C33.0527 50.7598 33 50.6326 33 50.5V43.5C33 42.673 33.673 42 34.5 42V41C33.8372 41.0008 33.2018 41.2644 32.7331 41.7331C32.2644 42.2018 32.0008 42.8372 32 43.5V50.5ZM54 48.5V50.5C54 51.327 54.673 52 55.5 52C56.327 52 57 51.327 57 50.5V43.5C57 42.121 55.879 41 54.5 41V42C55.327 42 56 42.673 56 43.5V50.5C56 50.775 55.775 51 55.5 51C55.225 51 55 50.775 55 50.5V48.5H54ZM42 43.5V50.5C42 51.327 42.673 52 43.5 52H45.5C46.327 52 47 51.327 47 50.5V43.5C47 42.121 45.879 41 44.5 41C43.8372 41.0008 43.2018 41.2644 42.7331 41.7331C42.2644 42.2018 42.0008 42.8372 42 43.5ZM46 43.5V50.5C46 50.775 45.775 51 45.5 51H43.5C43.3674 51 43.2402 50.9473 43.1464 50.8536C43.0527 50.7598 43 50.6326 43 50.5V43.5C43 42.673 43.673 42 44.5 42C45.327 42 46 42.673 46 43.5Z" fill="#68A706"/>
</g>
<defs>
<filter id="filter0_b_116_332" x="-4" y="-4" width="96" height="96" filterUnits="userSpaceOnUse" color-interpolation-filters="sRGB">
<feFlood flood-opacity="0" result="BackgroundImageFix"/>
<feGaussianBlur in="BackgroundImageFix" stdDeviation="2"/>
<feComposite in2="SourceAlpha" operator="in" result="effect1_backgroundBlur_116_332"/>
<feBlend mode="normal" in="SourceGraphic" in2="effect1_backgroundBlur_116_332" result="shape"/>
</filter>
</defs>
</svg>
