<svg width="88" height="88" viewBox="0 0 88 88" fill="none" xmlns="http://www.w3.org/2000/svg">
<g filter="url(#filter0_b_115_158)">
<rect width="88" height="88" rx="8" fill="#F7F7F7" fill-opacity="0.5"/>
<rect x="0.5" y="0.5" width="87" height="87" rx="7.5" stroke="#D0D5DD"/>
<path d="M30.1823 69.5937H57.8177C60.2689 69.5937 62.2656 67.5593 62.2656 65.1093V31.1734C62.2641 29.9936 61.7952 28.8624 60.9615 28.0275C60.1279 27.1927 58.9975 26.722 57.8177 26.7187H52.4219V25.7838C52.4219 24.1567 51.1329 22.7812 49.5057 22.7812H48.1562V22.5754C48.1562 21.4731 47.7184 20.416 46.9389 19.6365C46.1595 18.8571 45.1023 18.4192 44 18.4192C42.8977 18.4192 41.8405 18.8571 41.0611 19.6365C40.2816 20.416 39.8438 21.4731 39.8438 22.5754V22.7812H38.4943C36.8671 22.7812 35.5781 24.1567 35.5781 25.7838V26.7187H30.1823C29.0025 26.722 27.8721 27.1927 27.0385 28.0275C26.2048 28.8624 25.7359 29.9936 25.7344 31.1734V65.1093C25.7344 67.5598 27.7311 69.5937 30.1823 69.5937ZM41.1562 22.5754C41.1562 21.8212 41.4559 21.0979 41.9892 20.5646C42.5225 20.0313 43.2458 19.7317 44 19.7317C44.7542 19.7317 45.4775 20.0313 46.0108 20.5646C46.5441 21.0979 46.8438 21.8212 46.8438 22.5754V22.7812H41.1562V22.5754ZM36.8906 25.7838C36.8906 24.8804 37.5906 24.0937 38.4943 24.0937H49.5057C50.4094 24.0937 51.1094 24.8804 51.1094 25.7838V30.8749H36.8906V25.7838ZM27.0469 31.1734C27.048 30.3416 27.3785 29.544 27.9661 28.9552C28.5537 28.3663 29.3505 28.0341 30.1823 28.0312H35.5781V31.5372C35.5743 31.6212 35.5876 31.705 35.6171 31.7837C35.6466 31.8624 35.6918 31.9343 35.7499 31.9951C35.8079 32.0558 35.8777 32.1042 35.955 32.1373C36.0323 32.1703 36.1154 32.1874 36.1995 32.1874H51.8005C51.8846 32.1874 51.9677 32.1703 52.045 32.1373C52.1223 32.1042 52.1921 32.0558 52.2501 31.9951C52.3082 31.9343 52.3534 31.8624 52.3829 31.7837C52.4124 31.705 52.4257 31.6212 52.4219 31.5372V28.0312H57.8177C58.6495 28.0341 59.4463 28.3663 60.0339 28.9552C60.6215 29.544 60.952 30.3416 60.9531 31.1734V65.1093C60.9531 66.8367 59.5451 68.2812 57.8177 68.2812H30.1823C28.4549 68.2812 27.0469 66.8361 27.0469 65.1093V31.1734Z" fill="#223039"/>
<path d="M43.5845 54.5575C43.4614 54.4344 43.2945 54.3652 43.1205 54.3652C42.9464 54.3652 42.7795 54.4344 42.6564 54.5574C42.5333 54.6805 42.4642 54.8474 42.4641 55.0215C42.4641 55.1955 42.5333 55.3624 42.6563 55.4855L43.072 55.9012L42.6563 56.3168C42.5333 56.4399 42.4641 56.6068 42.4641 56.7809C42.4641 56.9549 42.5333 57.1219 42.6563 57.2449C42.7794 57.368 42.9464 57.4372 43.1204 57.4372C43.2945 57.4372 43.4614 57.368 43.5845 57.2449L44.0001 56.8293L44.4157 57.2449C44.5388 57.368 44.7058 57.4372 44.8798 57.4372C45.0539 57.4372 45.2208 57.368 45.3439 57.2449C45.467 57.1219 45.5361 56.9549 45.5361 56.7809C45.5361 56.6068 45.467 56.4399 45.3439 56.3168L44.9283 55.9012L45.3439 55.4855C45.467 55.3624 45.5361 55.1955 45.5361 55.0215C45.5361 54.8474 45.4669 54.6805 45.3438 54.5574C45.2208 54.4344 45.0538 54.3652 44.8798 54.3652C44.7057 54.3652 44.5388 54.4344 44.4157 54.5575L44.0001 54.9731L43.5845 54.5575Z" fill="#223039"/>
<path d="M33.414 60.4396C34.5693 60.4359 35.6797 59.9916 36.5186 59.1972C37.3575 58.4029 37.8618 57.3184 37.9286 56.165C37.9954 55.0116 37.6196 53.8762 36.878 52.9903C36.1363 52.1045 35.0846 51.535 33.9374 51.3979V47.0625H43.3437V51.4103C42.2088 51.5761 41.1788 52.1654 40.4607 53.0596C39.7426 53.9538 39.3897 55.0868 39.4728 56.2306C39.5559 57.3745 40.069 58.4445 40.9088 59.2255C41.7487 60.0066 42.853 60.4407 43.9999 60.4407C45.1468 60.4407 46.2512 60.0066 47.091 59.2255C47.9309 58.4445 48.4439 57.3745 48.527 56.2306C48.6102 55.0868 48.2572 53.9538 47.5391 53.0596C46.821 52.1654 45.791 51.5761 44.6562 51.4103V47.0625H54.0624V51.3976C53.1945 51.5026 52.3754 51.8561 51.7037 52.4155C51.0319 52.9749 50.536 53.7165 50.2757 54.5511C50.0154 55.3857 50.0017 56.2777 50.2363 57.1198C50.4709 57.962 50.9438 58.7184 51.5981 59.2982C52.2524 59.878 53.0603 60.2564 53.9246 60.3879C54.7888 60.5195 55.6727 60.3986 56.4699 60.0397C57.2671 59.6808 57.9436 59.0993 58.4181 58.3651C58.8927 57.6309 59.145 56.7752 59.1447 55.901C59.1447 53.6563 57.453 51.7885 55.3749 51.4267V46.41C55.3677 46.2322 55.2919 46.0641 55.1634 45.9411C55.035 45.818 54.8638 45.7495 54.6859 45.75H44.6562V40.675L45.3914 41.4097C45.4523 41.4707 45.5247 41.519 45.6043 41.552C45.6839 41.5851 45.7693 41.6021 45.8555 41.6021C45.9417 41.6021 46.0271 41.5852 46.1067 41.5522C46.1864 41.5192 46.2587 41.4709 46.3197 41.41C46.3807 41.349 46.4291 41.2767 46.4621 41.197C46.4951 41.1174 46.5121 41.0321 46.5121 40.9459C46.5121 40.8597 46.4952 40.7743 46.4622 40.6946C46.4292 40.615 46.3809 40.5426 46.32 40.4816L44.5281 38.6898C44.405 38.5667 44.2381 38.4976 44.0641 38.4976C43.89 38.4976 43.7231 38.5667 43.6 38.6898L41.8082 40.4816C41.6898 40.6056 41.6246 40.771 41.6265 40.9424C41.6285 41.1138 41.6974 41.2776 41.8186 41.3988C41.9398 41.5201 42.1036 41.5891 42.275 41.5911C42.4464 41.5931 42.6118 41.528 42.7358 41.4097L43.3437 40.8017V45.75H33.3154C33.1374 45.7496 32.9661 45.8181 32.8374 45.9411C32.7087 46.0641 32.6326 46.2321 32.6249 46.41V51.4266C30.5468 51.7875 28.8582 53.6559 28.8582 55.9012C28.8634 57.1063 29.3457 58.2602 30.1994 59.1107C31.0531 59.9611 32.2089 60.4389 33.414 60.4396ZM47.226 55.9006C47.226 56.5387 47.0368 57.1625 46.6823 57.6931C46.3277 58.2238 45.8238 58.6373 45.2342 58.8815C44.6447 59.1257 43.9959 59.1896 43.37 59.0651C42.7441 58.9406 42.1692 58.6333 41.718 58.1821C41.2667 57.7308 40.9594 57.1559 40.8349 56.53C40.7104 55.9041 40.7743 55.2554 41.0185 54.6658C41.2627 54.0762 41.6763 53.5723 42.2069 53.2178C42.7375 52.8632 43.3613 52.674 43.9995 52.674C44.8551 52.6748 45.6755 53.015 46.2805 53.62C46.8855 54.225 47.2257 55.0454 47.2265 55.901L47.226 55.9006ZM57.812 55.9006C57.812 56.5387 57.6228 57.1625 57.2682 57.6931C56.9137 58.2238 56.4098 58.6373 55.8202 58.8815C55.2306 59.1257 54.5819 59.1896 53.956 59.0651C53.3301 58.9406 52.7552 58.6333 52.3039 58.1821C51.8527 57.7308 51.5454 57.1559 51.4209 56.53C51.2964 55.9041 51.3603 55.2554 51.6045 54.6658C51.8487 54.0762 52.2623 53.5723 52.7929 53.2178C53.3235 52.8632 53.9473 52.674 54.5855 52.674C55.441 52.6749 56.2612 53.0152 56.8662 53.6202C57.4711 54.2252 57.8113 55.0455 57.812 55.901V55.9006ZM33.414 52.674C34.0521 52.674 34.6759 52.8632 35.2065 53.2178C35.7371 53.5723 36.1507 54.0762 36.3949 54.6658C36.6391 55.2554 36.703 55.9041 36.5785 56.53C36.454 57.1559 36.1467 57.7308 35.6955 58.1821C35.2442 58.6333 34.6693 58.9406 34.0434 59.0651C33.4175 59.1896 32.7688 59.1257 32.1792 58.8815C31.5896 58.6373 31.0857 58.2238 30.7312 57.6931C30.3766 57.1625 30.1874 56.5387 30.1874 55.9006C30.1885 55.0452 30.5288 54.2253 31.1337 53.6206C31.7386 53.0158 32.5586 52.6757 33.414 52.6749V52.674Z" fill="#223039"/>
<path d="M53.6129 55.2387C53.5548 55.1739 53.4845 55.1212 53.4059 55.0839C53.3273 55.0465 53.2421 55.0251 53.1552 55.021C53.0683 55.0168 52.9814 55.03 52.8997 55.0598C52.8179 55.0895 52.7429 55.1352 52.6789 55.1942C52.615 55.2532 52.5634 55.3243 52.5272 55.4034C52.491 55.4826 52.4709 55.5681 52.4681 55.655C52.4652 55.742 52.4797 55.8287 52.5107 55.91C52.5416 55.9913 52.5884 56.0656 52.6484 56.1287L53.6546 57.2191C53.7724 57.3467 53.9359 57.4225 54.1094 57.4297C54.2829 57.437 54.4522 57.3752 54.5802 57.258L56.4855 55.5123C56.6126 55.3945 56.6878 55.2311 56.6949 55.0579C56.7019 54.8847 56.6401 54.7158 56.523 54.5879C56.406 54.4601 56.2431 54.3838 56.0699 54.3757C55.8968 54.3676 55.7274 54.4283 55.5989 54.5446L54.1757 55.8485L53.6129 55.2387ZM32.4815 57.2189C32.5992 57.3466 32.7628 57.4225 32.9364 57.4298C33.1099 57.4371 33.2793 57.3753 33.4074 57.258L35.3127 55.5123C35.4398 55.3945 35.515 55.2311 35.5221 55.0579C35.5291 54.8847 35.4673 54.7158 35.3502 54.5879C35.2331 54.4601 35.0702 54.3838 34.8971 54.3757C34.724 54.3676 34.5546 54.4283 34.4261 54.5446L33.0032 55.8482L32.4404 55.2377C32.3224 55.1097 32.1584 55.0338 31.9845 55.0268C31.8106 55.0197 31.641 55.082 31.513 55.2C31.385 55.3179 31.3091 55.4819 31.3021 55.6559C31.295 55.8298 31.3573 55.9994 31.4753 56.1274L32.4815 57.2189Z" fill="#68A706"/>
</g>
<defs>
<filter id="filter0_b_115_158" x="-4" y="-4" width="96" height="96" filterUnits="userSpaceOnUse" color-interpolation-filters="sRGB">
<feFlood flood-opacity="0" result="BackgroundImageFix"/>
<feGaussianBlur in="BackgroundImageFix" stdDeviation="2"/>
<feComposite in2="SourceAlpha" operator="in" result="effect1_backgroundBlur_115_158"/>
<feBlend mode="normal" in="SourceGraphic" in2="effect1_backgroundBlur_115_158" result="shape"/>
</filter>
</defs>
</svg>
