<svg width="88" height="88" viewBox="0 0 88 88" fill="none" xmlns="http://www.w3.org/2000/svg">
<g filter="url(#filter0_b_116_322)">
<rect width="88" height="88" rx="8" fill="#F7F7F7" fill-opacity="0.5"/>
<rect x="0.5" y="0.5" width="87" height="87" rx="7.5" stroke="#D0D5DD"/>
<g clip-path="url(#clip0_116_322)">
<path d="M21.25 22.125C21.4231 22.125 21.5922 22.0737 21.7361 21.9775C21.88 21.8814 21.9922 21.7447 22.0584 21.5848C22.1246 21.425 22.1419 21.249 22.1082 21.0793C22.0744 20.9096 21.9911 20.7537 21.8687 20.6313C21.7463 20.5089 21.5904 20.4256 21.4207 20.3918C21.251 20.3581 21.075 20.3754 20.9152 20.4416C20.7553 20.5078 20.6186 20.62 20.5225 20.7639C20.4263 20.9078 20.375 21.0769 20.375 21.25C20.375 21.4821 20.4672 21.7046 20.6313 21.8687C20.7954 22.0328 21.0179 22.125 21.25 22.125ZM24.75 22.125C24.9231 22.125 25.0922 22.0737 25.2361 21.9775C25.38 21.8814 25.4922 21.7447 25.5584 21.5848C25.6246 21.425 25.6419 21.249 25.6082 21.0793C25.5744 20.9096 25.4911 20.7537 25.3687 20.6313C25.2463 20.5089 25.0904 20.4256 24.9207 20.3918C24.751 20.3581 24.575 20.3754 24.4152 20.4416C24.2553 20.5078 24.1186 20.62 24.0225 20.7639C23.9263 20.9078 23.875 21.0769 23.875 21.25C23.875 21.4821 23.9672 21.7046 24.1313 21.8687C24.2954 22.0328 24.5179 22.125 24.75 22.125ZM28.25 22.125C28.4231 22.125 28.5922 22.0737 28.7361 21.9775C28.88 21.8814 28.9922 21.7447 29.0584 21.5848C29.1246 21.425 29.1419 21.249 29.1082 21.0793C29.0744 20.9096 28.9911 20.7537 28.8687 20.6313C28.7463 20.5089 28.5904 20.4256 28.4207 20.3918C28.251 20.3581 28.075 20.3754 27.9152 20.4416C27.7553 20.5078 27.6186 20.62 27.5225 20.7639C27.4263 20.9078 27.375 21.0769 27.375 21.25C27.375 21.4821 27.4672 21.7046 27.6313 21.8687C27.7954 22.0328 28.0179 22.125 28.25 22.125ZM23 52.82H32.625C32.8571 52.82 33.0796 52.7278 33.2437 52.5637C33.4078 52.3996 33.5 52.1771 33.5 51.945C33.5 51.7129 33.4078 51.4904 33.2437 51.3263C33.0796 51.1622 32.8571 51.07 32.625 51.07H23C22.7679 51.07 22.5454 51.1622 22.3813 51.3263C22.2172 51.4904 22.125 51.7129 22.125 51.945C22.125 52.1771 22.2172 52.3996 22.3813 52.5637C22.5454 52.7278 22.7679 52.82 23 52.82ZM54.5 51.945C54.5 51.7129 54.4078 51.4904 54.2437 51.3263C54.0796 51.1622 53.8571 51.07 53.625 51.07H43.125C42.8929 51.07 42.6704 51.1622 42.5063 51.3263C42.3422 51.4904 42.25 51.7129 42.25 51.945C42.25 52.1771 42.3422 52.3996 42.5063 52.5637C42.6704 52.7278 42.8929 52.82 43.125 52.82H53.625C53.8571 52.82 54.0796 52.7278 54.2437 52.5637C54.4078 52.3996 54.5 52.1771 54.5 51.945ZM35.25 51.945C35.25 52.1771 35.3422 52.3996 35.5063 52.5637C35.6704 52.7278 35.8929 52.82 36.125 52.82H39.625C39.8571 52.82 40.0796 52.7278 40.2437 52.5637C40.4078 52.3996 40.5 52.1771 40.5 51.945C40.5 51.7129 40.4078 51.4904 40.2437 51.3263C40.0796 51.1622 39.8571 51.07 39.625 51.07H36.125C35.8929 51.07 35.6704 51.1622 35.5063 51.3263C35.3422 51.4904 35.25 51.7129 35.25 51.945ZM60.625 51.07H57.125C56.8929 51.07 56.6704 51.1622 56.5063 51.3263C56.3422 51.4904 56.25 51.7129 56.25 51.945C56.25 52.1771 56.3422 52.3996 56.5063 52.5637C56.6704 52.7278 56.8929 52.82 57.125 52.82H60.625C60.8571 52.82 61.0796 52.7278 61.2437 52.5637C61.4078 52.3996 61.5 52.1771 61.5 51.945C61.5 51.7129 61.4078 51.4904 61.2437 51.3263C61.0796 51.1622 60.8571 51.07 60.625 51.07ZM33.5 64.195H23C22.7679 64.195 22.5454 64.2872 22.3813 64.4513C22.2172 64.6154 22.125 64.8379 22.125 65.07C22.125 65.3021 22.2172 65.5246 22.3813 65.6887C22.5454 65.8528 22.7679 65.945 23 65.945H33.5C33.7321 65.945 33.9546 65.8528 34.1187 65.6887C34.2828 65.5246 34.375 65.3021 34.375 65.07C34.375 64.8379 34.2828 64.6154 34.1187 64.4513C33.9546 64.2872 33.7321 64.195 33.5 64.195ZM58.875 64.195H47.5C47.2679 64.195 47.0454 64.2872 46.8813 64.4513C46.7172 64.6154 46.625 64.8379 46.625 65.07C46.625 65.3021 46.7172 65.5246 46.8813 65.6887C47.0454 65.8528 47.2679 65.945 47.5 65.945H58.875C59.1071 65.945 59.3296 65.8528 59.4937 65.6887C59.6578 65.5246 59.75 65.3021 59.75 65.07C59.75 64.8379 59.6578 64.6154 59.4937 64.4513C59.3296 64.2872 59.1071 64.195 58.875 64.195ZM44 64.195H37C36.7679 64.195 36.5454 64.2872 36.3813 64.4513C36.2172 64.6154 36.125 64.8379 36.125 65.07C36.125 65.3021 36.2172 65.5246 36.3813 65.6887C36.5454 65.8528 36.7679 65.945 37 65.945H44C44.2321 65.945 44.4546 65.8528 44.6187 65.6887C44.7828 65.5246 44.875 65.3021 44.875 65.07C44.875 64.8379 44.7828 64.6154 44.6187 64.4513C44.4546 64.2872 44.2321 64.195 44 64.195ZM23 61.57H40.5C40.7321 61.57 40.9546 61.4778 41.1187 61.3137C41.2828 61.1496 41.375 60.9271 41.375 60.695C41.375 60.4629 41.2828 60.2404 41.1187 60.0763C40.9546 59.9122 40.7321 59.82 40.5 59.82H23C22.7679 59.82 22.5454 59.9122 22.3813 60.0763C22.2172 60.2404 22.125 60.4629 22.125 60.695C22.125 60.9271 22.2172 61.1496 22.3813 61.3137C22.5454 61.4778 22.7679 61.57 23 61.57ZM44 61.57H52.75C52.9821 61.57 53.2046 61.4778 53.3687 61.3137C53.5328 61.1496 53.625 60.9271 53.625 60.695C53.625 60.4629 53.5328 60.2404 53.3687 60.0763C53.2046 59.9122 52.9821 59.82 52.75 59.82H44C43.7679 59.82 43.5454 59.9122 43.3813 60.0763C43.2172 60.2404 43.125 60.4629 43.125 60.695C43.125 60.9271 43.2172 61.1496 43.3813 61.3137C43.5454 61.4778 43.7679 61.57 44 61.57ZM29.125 55.445C28.8929 55.445 28.6704 55.5372 28.5063 55.7013C28.3422 55.8654 28.25 56.0879 28.25 56.32C28.25 56.5521 28.3422 56.7746 28.5063 56.9387C28.6704 57.1028 28.8929 57.195 29.125 57.195H36.125C36.3571 57.195 36.5796 57.1028 36.7437 56.9387C36.9078 56.7746 37 56.5521 37 56.32C37 56.0879 36.9078 55.8654 36.7437 55.7013C36.5796 55.5372 36.3571 55.445 36.125 55.445H29.125ZM47.5 56.32C47.5 56.0879 47.4078 55.8654 47.2437 55.7013C47.0796 55.5372 46.8571 55.445 46.625 55.445H39.625C39.3929 55.445 39.1704 55.5372 39.0063 55.7013C38.8422 55.8654 38.75 56.0879 38.75 56.32C38.75 56.5521 38.8422 56.7746 39.0063 56.9387C39.1704 57.1028 39.3929 57.195 39.625 57.195H46.625C46.8571 57.195 47.0796 57.1028 47.2437 56.9387C47.4078 56.7746 47.5 56.5521 47.5 56.32ZM23 57.195H25.625C25.8571 57.195 26.0796 57.1028 26.2437 56.9387C26.4078 56.7746 26.5 56.5521 26.5 56.32C26.5 56.0879 26.4078 55.8654 26.2437 55.7013C26.0796 55.5372 25.8571 55.445 25.625 55.445H23C22.7679 55.445 22.5454 55.5372 22.3813 55.7013C22.2172 55.8654 22.125 56.0879 22.125 56.32C22.125 56.5521 22.2172 56.7746 22.3813 56.9387C22.5454 57.1028 22.7679 57.195 23 57.195Z" fill="#223039"/>
<path d="M67.625 16H20.375C19.2147 16 18.1019 16.4609 17.2814 17.2814C16.4609 18.1019 16 19.2147 16 20.375V67.625C16 68.7853 16.4609 69.8981 17.2814 70.7186C18.1019 71.5391 19.2147 72 20.375 72H67.625C68.7853 72 69.8981 71.5391 70.7186 70.7186C71.5391 69.8981 72 68.7853 72 67.625V20.375C72 19.2147 71.5391 18.1019 70.7186 17.2814C69.8981 16.4609 68.7853 16 67.625 16ZM20.375 17.75H67.625C68.3212 17.75 68.9889 18.0266 69.4812 18.5188C69.9734 19.0111 70.25 19.6788 70.25 20.375V24.75H17.75V20.375C17.75 19.6788 18.0266 19.0111 18.5188 18.5188C19.0111 18.0266 19.6788 17.75 20.375 17.75ZM67.625 70.25H20.375C19.6788 70.25 19.0111 69.9734 18.5188 69.4812C18.0266 68.9889 17.75 68.3212 17.75 67.625V26.5H70.25V67.625C70.25 68.3212 69.9734 68.9889 69.4812 69.4812C68.9889 69.9734 68.3212 70.25 67.625 70.25Z" fill="#223039"/>
<path d="M29.125 40.5L36.5363 44.875C36.7337 44.9642 36.9571 44.977 37.1634 44.911C37.3697 44.8449 37.5442 44.7047 37.6531 44.5174C37.762 44.3302 37.7975 44.1092 37.7528 43.8972C37.7082 43.6852 37.5865 43.4974 37.4113 43.37L31.2863 39.765L37.4113 36.125C37.5228 36.0746 37.6226 36.0013 37.7041 35.9099C37.7855 35.8185 37.8469 35.711 37.8843 35.5944C37.9216 35.4778 37.934 35.3547 37.9208 35.233C37.9075 35.1113 37.8689 34.9937 37.8074 34.8878C37.7458 34.782 37.6628 34.6902 37.5635 34.6185C37.4643 34.5468 37.3511 34.4967 37.2313 34.4714C37.1115 34.4462 36.9878 34.4464 36.868 34.4719C36.7483 34.4975 36.6353 34.548 36.5363 34.62L29.125 38.995C28.9945 39.0725 28.8863 39.1826 28.8112 39.3145C28.736 39.4464 28.6965 39.5957 28.6965 39.7475C28.6965 39.8993 28.736 40.0485 28.8112 40.1804C28.8863 40.3124 28.9945 40.4225 29.125 40.5ZM50.2475 44.5162C50.3659 44.7158 50.5587 44.8601 50.7835 44.9176C51.0083 44.975 51.2467 44.9408 51.4463 44.8225L58.875 40.5C59.0073 40.4236 59.1172 40.314 59.194 40.182C59.2707 40.05 59.3116 39.9002 59.3125 39.7475C59.3125 39.5956 59.273 39.4464 59.1978 39.3145C59.1226 39.1825 59.0144 39.0724 58.8838 38.995L51.4638 34.62C51.2664 34.5308 51.0429 34.5179 50.8366 34.584C50.6303 34.65 50.4558 34.7903 50.347 34.9775C50.2381 35.1648 50.2026 35.3858 50.2472 35.5978C50.2919 35.8097 50.4136 35.9976 50.5888 36.125L56.7138 39.765L50.5888 43.37C50.3971 43.4821 50.2551 43.6628 50.1917 43.8757C50.1284 44.0885 50.1483 44.3175 50.2475 44.5162ZM42.1888 47.9637C42.4127 48.0195 42.6495 47.9846 42.8478 47.8666C43.0461 47.7487 43.1898 47.5571 43.2475 47.3337L47.115 32.205C47.1708 31.9811 47.1359 31.7442 47.0179 31.5459C46.9 31.3476 46.7084 31.204 46.485 31.1462C46.3736 31.1173 46.2575 31.1107 46.1434 31.1267C46.0294 31.1427 45.9197 31.1811 45.8205 31.2396C45.7213 31.2981 45.6347 31.3757 45.5655 31.4678C45.4964 31.5598 45.4461 31.6647 45.4175 31.7762L41.55 46.8962C41.5212 47.0083 41.5149 47.1249 41.5315 47.2394C41.5481 47.3539 41.5872 47.464 41.6466 47.5633C41.706 47.6625 41.7845 47.749 41.8776 47.8178C41.9707 47.8865 42.0764 47.9361 42.1888 47.9637Z" fill="#68A706"/>
</g>
</g>
<defs>
<filter id="filter0_b_116_322" x="-4" y="-4" width="96" height="96" filterUnits="userSpaceOnUse" color-interpolation-filters="sRGB">
<feFlood flood-opacity="0" result="BackgroundImageFix"/>
<feGaussianBlur in="BackgroundImageFix" stdDeviation="2"/>
<feComposite in2="SourceAlpha" operator="in" result="effect1_backgroundBlur_116_322"/>
<feBlend mode="normal" in="SourceGraphic" in2="effect1_backgroundBlur_116_322" result="shape"/>
</filter>
<clipPath id="clip0_116_322">
<rect width="56" height="56" fill="white" transform="translate(16 16)"/>
</clipPath>
</defs>
</svg>
