<svg width="80" height="80" viewBox="0 0 80 80" fill="none" xmlns="http://www.w3.org/2000/svg">
<rect width="80" height="80" rx="8" fill="#EDFBF7"/>
<g clip-path="url(#clip0_417_10038)">
<path d="M40 69.3333C39.608 69.3333 39.2347 69.16 38.9787 68.8586L8.31199 32.4346C7.95732 32.0133 7.89865 31.416 8.16265 30.936L18.9147 11.36C19.1493 10.9333 19.5973 10.6666 20.0827 10.6666H59.9173C60.4053 10.6666 60.8533 10.9333 61.0853 11.36L71.8347 30.936C72.1013 31.4186 72.04 32.0133 71.6853 32.4346L41.0187 68.8586C40.7653 69.16 40.392 69.3333 40 69.3333ZM10.944 31.416L40 65.9306L69.056 31.416L59.128 13.3333H20.872L10.944 31.416Z" fill="#223039"/>
<path d="M70 33.3333H10C9.26402 33.3333 8.66669 32.736 8.66669 32C8.66669 31.264 9.26402 30.6666 10 30.6666H70C70.736 30.6666 71.3334 31.264 71.3334 32C71.3334 32.736 70.736 33.3333 70 33.3333Z" fill="#223039"/>
<path d="M53.4987 32.584C53.08 32.584 52.6667 32.3866 52.408 32.016L40.0053 14.328L27.76 31.9226C27.344 32.528 26.5093 32.6746 25.9067 32.256C25.2987 31.8346 25.152 31.0053 25.5733 30.4L38.9067 11.2373C39.1547 10.88 39.5627 10.6666 39.9973 10.6666H40C40.4347 10.6666 40.84 10.8773 41.0907 11.2346L54.5893 30.4853C55.0133 31.0906 54.8667 31.92 54.264 32.3413C54.0347 32.504 53.7653 32.584 53.4987 32.584Z" fill="#223039"/>
<path d="M39.2754 67.3327C38.7293 67.3327 38.2451 66.9901 38.0622 66.4776L18.824 12.3871C18.5871 11.7148 18.9374 10.9782 19.6045 10.7412C20.2793 10.4939 21.0134 10.8519 21.2504 11.5216L39.2754 62.2019L57.3004 11.5216C57.5374 10.8545 58.2715 10.4991 58.9463 10.7412C59.616 10.9782 59.9663 11.7148 59.7268 12.3871L40.4886 66.4776C40.3057 66.9901 39.8215 67.3327 39.2754 67.3327Z" fill="#223039"/>
<path d="M27.5 42.7456C26.0502 37.2532 21.782 32.886 16.2875 31.5C21.782 30.114 26.0502 25.7468 27.5 20.2544C28.9498 25.7468 33.218 30.114 38.7125 31.5C33.218 32.886 28.9498 37.2532 27.5 42.7456Z" fill="#EDFBF7" stroke="#223039"/>
</g>
<defs>
<clipPath id="clip0_417_10038">
<rect width="64" height="64" fill="white" transform="translate(8 8)"/>
</clipPath>
</defs>
</svg>
