<svg width="80" height="80" viewBox="0 0 80 80" fill="none" xmlns="http://www.w3.org/2000/svg">
<rect width="80" height="80" rx="8" fill="#EDFBF7"/>
<g clip-path="url(#clip0_417_10143)">
<path d="M42.3995 35.4615H37.6006C37.4648 35.4615 37.3495 35.3618 37.3299 35.2274L36.8986 32.2584C36.1662 32.0415 35.4568 31.747 34.7857 31.3812L32.384 33.1754C32.2746 33.2569 32.1227 33.2458 32.0268 33.1496L28.6336 29.7516C28.5377 29.6556 28.5268 29.5038 28.6079 29.3949L30.3999 26.9894C30.0346 26.3174 29.7405 25.6069 29.5237 24.8729L26.5592 24.4411C26.4248 24.4215 26.3251 24.3062 26.3251 24.1704V19.3647C26.3251 19.2289 26.4248 19.1136 26.5592 19.0941L29.5237 18.6622C29.7403 17.9285 30.0345 17.2181 30.3999 16.5457L28.6076 14.1402C28.5265 14.0314 28.5374 13.8796 28.6333 13.7836L32.0265 10.3855C32.1225 10.2894 32.2747 10.2782 32.3837 10.3597L34.7854 12.1537C35.4566 11.7881 36.1659 11.4936 36.8983 11.2768L37.3297 8.30773C37.3493 8.1733 37.4645 8.07361 37.6003 8.07361H42.3992C42.535 8.07361 42.6503 8.1733 42.6698 8.30773L43.1011 11.2768C43.8336 11.4936 44.5429 11.7881 45.2141 12.1537L47.6157 10.3597C47.7249 10.2781 47.8769 10.2894 47.9729 10.3855L51.3662 13.7836C51.462 13.8796 51.473 14.0314 51.3919 14.1402L49.5999 16.5457C49.9653 17.2181 50.2594 17.9285 50.476 18.6622L53.4406 19.0941C53.575 19.1136 53.6747 19.2289 53.6747 19.3647V24.1703C53.6747 24.3061 53.575 24.4214 53.4406 24.4409L50.476 24.8728C50.2593 25.6067 49.9651 26.3173 49.5999 26.9893L51.3919 29.3948C51.473 29.5036 51.462 29.6554 51.3662 29.7514L47.9729 33.1494C47.8771 33.2456 47.725 33.2569 47.6157 33.1753L45.2141 31.3811C44.5429 31.7469 43.8336 32.0413 43.1011 32.2582L42.6698 35.2272C42.6505 35.3618 42.5353 35.4615 42.3995 35.4615ZM37.8373 34.9145H42.1629L42.5856 32.0048C42.6012 31.8976 42.6787 31.8097 42.7829 31.7807C43.5911 31.5559 44.3713 31.232 45.1016 30.8182C45.196 30.7648 45.313 30.772 45.4002 30.8371L47.7537 32.5953L50.8127 29.5321L49.0564 27.1746C48.9916 27.0878 48.9844 26.971 49.0376 26.8766C49.4507 26.1455 49.7741 25.3643 49.9988 24.5546C50.0276 24.4501 50.1156 24.3727 50.2229 24.3571L53.1282 23.9337V19.6013L50.2229 19.178C50.1157 19.1624 50.0276 19.0849 49.9988 18.9805C49.7741 18.1714 49.4508 17.39 49.0376 16.6585C48.9842 16.5643 48.9916 16.4474 49.0564 16.3605L50.8127 14.003L47.7537 10.9398L45.4002 12.698C45.3131 12.7631 45.1959 12.7704 45.1017 12.7169C44.3712 12.3031 43.5911 11.9792 42.7829 11.7544C42.6786 11.7254 42.6012 11.6375 42.5856 11.5303L42.1629 8.62062H37.8373L37.4146 11.5303C37.399 11.6375 37.3215 11.7254 37.2172 11.7544C36.409 11.9792 35.629 12.3031 34.8985 12.7169C34.8041 12.7702 34.6871 12.763 34.5999 12.698L32.2464 10.9398L29.1874 14.003L30.9437 16.3605C31.0086 16.4474 31.0158 16.5641 30.9626 16.6585C30.5493 17.3901 30.2259 18.1714 30.0014 18.9805C29.9725 19.085 29.8846 19.1624 29.7772 19.178L26.8718 19.6013V23.9337L29.7771 24.357C29.8843 24.3725 29.9724 24.4501 30.0012 24.5544C30.2261 25.3641 30.5493 26.1454 30.9625 26.8765C31.0158 26.9707 31.0084 27.0875 30.9436 27.1745L29.1873 29.5319L32.2463 32.5952L34.5998 30.837C34.6869 30.7719 34.8038 30.7646 34.8985 30.8181C35.6287 31.2319 36.4089 31.5557 37.2171 31.7805C37.3214 31.8095 37.3989 31.8975 37.4144 32.0047L37.8373 34.9145Z" fill="#223039"/>
<path d="M40 28.9652C44.0382 28.9652 47.3118 25.7427 47.3118 21.7675C47.3118 17.7923 44.0382 14.5698 40 14.5698C35.9617 14.5698 32.6881 17.7923 32.6881 21.7675C32.6881 25.7427 35.9617 28.9652 40 28.9652Z" fill="#F5F5F5"/>
<path d="M42.7504 24.9112C42.6777 24.9112 42.6051 24.8823 42.5513 24.8252L39.8009 21.9047C39.753 21.854 39.7265 21.787 39.7265 21.7172V17.6981C39.7265 17.5471 39.849 17.4246 40 17.4246C40.151 17.4246 40.2735 17.5471 40.2735 17.6981V21.6086L42.9495 24.4501C43.116 24.6151 42.9808 24.9191 42.7504 24.9112Z" fill="#223039"/>
<path d="M40 29.2386C35.8174 29.2386 32.4146 25.8871 32.4146 21.7674C32.4146 17.6478 35.8174 14.2964 40 14.2964C44.1825 14.2964 47.5853 17.6479 47.5853 21.7674C47.5853 25.887 44.1825 29.2386 40 29.2386ZM40 14.8434C36.119 14.8434 32.9616 17.9494 32.9616 21.7674C32.9616 25.5854 36.119 28.6916 40 28.6916C43.881 28.6916 47.0383 25.5854 47.0383 21.7674C47.0383 17.9494 43.881 14.8434 40 14.8434Z" fill="#223039"/>
<path d="M34.8147 58.8681C34.8147 58.8681 31.098 62.4691 28.5679 64.1744C26.7026 65.4317 24.7892 66.354 23.1881 66.354C18.5575 66.354 14.7363 62.9006 14.1541 58.4301C14.1035 58.0414 14.0746 57.6458 14.0746 57.2433C14.0746 52.3173 17.9859 48.3069 22.873 48.1406C22.9779 48.137 23.0825 48.1361 23.1881 48.1326C27.7761 47.9852 34.3064 55.0504 34.3059 55.0498C35.5183 56.2419 36.301 57.1156 36.3402 57.1595L36.3514 57.1476C36.3639 57.1607 36.3767 57.1744 36.3893 57.1877C35.6042 58.0247 35.0003 58.6705 34.8147 58.8681ZM56.8119 66.353C55.3456 66.353 51.9041 64.403 51.9041 64.403C47.9017 61.843 43.9834 57.5251 43.6781 57.1856C43.8095 57.0523 43.946 56.9146 44.0909 56.7702C44.7209 56.097 45.9862 54.7863 47.5506 53.3849C50.3245 50.9001 54.0373 48.1316 56.812 48.1316C58.3979 48.1316 59.8888 48.5372 61.1877 49.2494C64.0111 50.7974 65.9256 53.7961 65.9256 57.2424C65.9256 58.3463 65.7289 59.4042 65.3693 60.3833C64.0891 63.8672 60.7409 66.353 56.8119 66.353Z" fill="#F5F5F5"/>
<path d="M16.5947 58.3858C16.4595 58.3858 16.3419 58.2854 16.3239 58.1477C16.2828 57.832 16.2628 57.5363 16.2628 57.2435C16.2628 53.4931 19.1992 50.4553 22.9475 50.3277C23.101 50.3244 23.225 50.4409 23.2302 50.5918C23.2353 50.7427 23.1171 50.8692 22.9661 50.8744C19.514 50.9919 16.8097 53.7896 16.8097 57.2435C16.8097 57.5124 16.8283 57.7851 16.8663 58.077C16.8887 58.2391 16.7583 58.3872 16.5947 58.3858Z" fill="#223039"/>
<path d="M21.6386 61.4731H21.1412C20.346 61.4731 19.699 60.8226 19.699 60.0229V58.433L18.8045 57.5323C18.6987 57.4257 18.6987 57.2535 18.8045 57.147L19.699 56.2463V54.6564C19.699 53.8567 20.3459 53.2062 21.1412 53.2062H21.6386C21.7896 53.2062 21.9121 53.3287 21.9121 53.4797C21.9121 53.6307 21.7896 53.7532 21.6386 53.7532H21.1412C20.6477 53.7532 20.246 54.1584 20.246 54.6564V56.359C20.246 56.4312 20.2175 56.5005 20.1666 56.5517L19.384 57.3396L20.1666 58.1276C20.2175 58.1789 20.246 58.2481 20.246 58.3203V60.0229C20.246 60.5209 20.6477 60.9261 21.1412 60.9261H21.6386C21.7896 60.9261 21.9121 61.0486 21.9121 61.1996C21.9121 61.3506 21.7897 61.4731 21.6386 61.4731ZM26.7028 61.4731H26.2056C26.0546 61.4731 25.9321 61.3506 25.9321 61.1996C25.9321 61.0486 26.0546 60.9261 26.2056 60.9261H26.7028C27.1963 60.9261 27.598 60.5209 27.598 60.0229V58.3203C27.598 58.2481 27.6266 58.1788 27.6774 58.1276L28.4601 57.3396L27.6774 56.5517C27.6266 56.5004 27.598 56.4312 27.598 56.359V54.6564C27.598 54.1584 27.1963 53.7532 26.7028 53.7532H26.2056C26.0546 53.7532 25.9321 53.6307 25.9321 53.4797C25.9321 53.3287 26.0546 53.2062 26.2056 53.2062H26.7028C27.498 53.2062 28.145 53.8567 28.145 54.6564V56.2462L29.0395 57.1468C29.1453 57.2535 29.1453 57.4257 29.0395 57.5322L28.145 58.4328V60.0227C28.145 60.8224 27.498 61.4731 26.7028 61.4731Z" fill="#223039"/>
<path d="M23.9221 58.0259C24.2986 58.0259 24.6038 57.7186 24.6038 57.3395C24.6038 56.9603 24.2986 56.653 23.9221 56.653C23.5456 56.653 23.2404 56.9603 23.2404 57.3395C23.2404 57.7186 23.5456 58.0259 23.9221 58.0259Z" fill="#223039"/>
<path d="M21.5847 57.8299C21.8536 57.8299 22.0717 57.6104 22.0717 57.3395C22.0717 57.0687 21.8536 56.8491 21.5847 56.8491C21.3157 56.8491 21.0977 57.0687 21.0977 57.3395C21.0977 57.6104 21.3157 57.8299 21.5847 57.8299Z" fill="#223039"/>
<path d="M26.2593 57.8299C26.5283 57.8299 26.7463 57.6104 26.7463 57.3395C26.7463 57.0687 26.5283 56.8491 26.2593 56.8491C25.9904 56.8491 25.7723 57.0687 25.7723 57.3395C25.7723 57.6104 25.9904 57.8299 26.2593 57.8299Z" fill="#223039"/>
<path d="M57.1998 63.8575C56.207 63.8575 55.2167 63.6354 54.3116 63.1951C53.8735 62.9819 53.4338 62.7525 53.0404 62.5317C52.9086 62.4577 52.8617 62.291 52.9356 62.1593C53.0096 62.0276 53.1762 61.9807 53.308 62.0545C53.6924 62.2702 54.1221 62.4945 54.551 62.7032C56.0506 63.4329 57.8061 63.5088 59.3672 62.9113C60.9138 62.3196 62.1051 61.1598 62.722 59.6457C62.7498 59.5777 62.7762 59.509 62.8018 59.4398C62.9198 59.1049 63.4426 59.2979 63.3151 59.629C63.2875 59.7039 63.2586 59.7783 63.2287 59.852C62.5538 61.5078 61.2519 62.7758 59.5625 63.4222C58.8027 63.7129 58.0005 63.8575 57.1998 63.8575Z" fill="#223039"/>
<path d="M22.8729 48.2199C22.9778 48.2163 23.0824 48.2119 23.1881 48.2119C26.6492 48.2119 31.5705 52.5197 34.3074 55.211L33.0151 50.9881L37.6616 50.9576C36.9262 50.2479 36.0784 49.4633 35.1591 48.6761C30.5615 44.7388 26.6458 42.8247 23.1881 42.8247C22.6261 42.8247 22.0718 42.8579 21.5263 42.9204L18.6291 46.4196L22.8729 48.2199Z" fill="#68A706"/>
<path d="M28.5679 64.2537C26.7026 65.511 24.7892 66.4334 23.1881 66.4334C18.5575 66.4334 14.7363 62.98 14.1541 58.5094L12.8427 62.803L8.97955 60.2341C10.3315 66.8377 16.1886 71.8206 23.1881 71.8206C25.6424 71.8206 28.3281 70.855 31.3242 68.887L32.7073 65.0032L28.5679 64.2537Z" fill="#68A706"/>
<path d="M47.5506 53.4653C50.3245 50.9805 54.0373 48.2119 56.812 48.2119C58.3979 48.2119 59.8888 48.6175 61.1877 49.3297L65.254 49.1104L64.3331 44.9308C62.1388 43.5949 59.5637 42.8247 56.812 42.8247C53.3544 42.8247 49.4387 44.7387 44.841 48.6761C44.8116 48.7012 44.7833 48.7262 44.754 48.7513L49.3355 49.2633L47.5506 53.4653Z" fill="#68A706"/>
<path d="M65.3692 60.4636L66.212 64.3411L70.2646 62.7363C68.1146 68.0566 62.895 71.8206 56.8119 71.8206C54.4458 71.8206 51.8649 70.9238 48.998 69.0961L47.913 64.9316L51.904 64.5639C53.6172 65.6597 55.3455 66.4334 56.8118 66.4334C60.7409 66.4334 64.0892 63.9478 65.3692 60.4636Z" fill="#68A706"/>
<path d="M53.4103 59.7186C53.3513 59.7186 53.2921 59.6996 53.242 59.6605L50.3024 57.3605C50.1639 57.2578 50.1639 57.0324 50.3024 56.9297L53.242 54.6297C53.5182 54.4069 53.8618 54.846 53.5791 55.0604L50.9148 57.1451L53.5791 59.2297C53.7852 59.3793 53.6598 59.728 53.4103 59.7186ZM58.7456 59.7186C58.4962 59.728 58.3709 59.3792 58.577 59.2297L61.2413 57.1451L58.577 55.0604C58.458 54.9673 58.4371 54.7954 58.5301 54.6764C58.6233 54.5575 58.7951 54.5367 58.9141 54.6295L61.8537 56.9296C61.9922 57.0323 61.9922 57.2576 61.8537 57.3603L58.9141 59.6604C58.8639 59.6996 58.8047 59.7186 58.7456 59.7186ZM55.5609 59.7337C55.3885 59.7356 55.2539 59.5687 55.2937 59.4004L56.3284 54.7702C56.3613 54.6228 56.5077 54.53 56.6551 54.5629C56.8025 54.5959 56.8952 54.7421 56.8624 54.8895L55.8277 59.5196C55.7991 59.6471 55.6862 59.7337 55.5609 59.7337Z" fill="#223039"/>
<path d="M64.4752 44.6168C62.1695 43.2129 59.5196 42.4709 56.8121 42.4709C53.2874 42.4542 49.1884 44.4791 44.5759 48.4633C42.397 50.3687 41.9483 50.941 40.051 52.9042C39.5414 52.3595 38.5066 51.31 37.8556 50.6857C32.9321 45.8403 26.7312 41.6208 21.4951 42.5682C12.9818 43.4482 6.91941 51.851 8.71168 60.2087C10.1122 67.0491 16.2004 72.0138 23.188 72.0138C25.7124 72.0138 28.4229 71.0395 31.4742 69.0354C34.0773 67.4284 38.4242 63.4045 39.997 61.6255C41.5284 63.3643 46.2336 67.712 48.851 69.2465C51.7721 71.1087 54.3761 72.014 56.8119 72.014C59.8113 72.014 62.7007 71.1166 65.1682 69.4187C67.5772 67.761 69.4273 65.4579 70.518 62.7586C71.2276 61.0026 71.5876 59.1467 71.5876 57.2424C71.5877 52.048 68.9288 47.3283 64.4752 44.6168ZM71.0407 57.2423C71.0407 59.0369 70.7088 60.7866 70.0543 62.445L66.4107 63.8878L65.6531 60.4022C67.1135 56.4659 65.5662 51.7729 62.0804 49.475L65.2685 49.303C65.4325 49.2981 65.5598 49.1301 65.521 48.971L64.7422 45.4367C68.6984 48.0929 71.0407 52.4588 71.0407 57.2423ZM52.0514 64.253C48.417 61.9284 44.8047 58.0895 44.0171 57.2319C44.1035 57.1446 44.1917 57.056 44.2841 56.964C44.2862 56.9617 44.2884 56.9593 44.2906 56.957C44.9053 56.3002 46.1697 54.9892 47.7324 53.5892C47.7325 53.5889 47.7328 53.5888 47.7331 53.5887C50.3728 51.224 54.0906 48.4051 56.8119 48.4051C58.295 48.4051 59.7625 48.7799 61.056 49.4893C64.8467 51.5024 66.6366 56.2853 65.1124 60.2888C63.8397 63.7525 60.5042 66.0795 56.8119 66.0795C55.5481 66.0795 53.9463 65.4651 52.0514 64.253ZM56.8121 43.0179C59.3803 43.0179 61.8945 43.7111 64.0912 45.024L64.9178 48.7742L61.2502 48.9721C59.8934 48.243 58.3605 47.8579 56.8121 47.8579C54.2254 47.8579 50.8844 50.17 48.2683 52.395L49.5874 49.2897C49.6613 49.1281 49.543 48.926 49.366 48.9109L45.4132 48.4692C49.7883 44.8022 53.5208 43.0179 56.8121 43.0179ZM42.1565 51.524C42.5782 51.0157 43.5728 50.0772 44.8424 48.9559L48.9405 49.4139L47.3228 53.2219C45.5585 54.8065 44.5228 55.9326 43.6464 56.8289L40.3997 53.3317C41.3734 52.3079 41.9624 51.7018 42.1565 51.524ZM21.6663 43.0998C26.4971 42.2802 32.2038 46.0222 36.9837 50.6082L33.0132 50.6343C32.8357 50.6307 32.6968 50.8194 32.7535 50.9878L33.7364 54.1996C30.8287 51.4802 26.3598 47.7138 22.9241 47.8641L19.0739 46.231L21.6663 43.0998ZM34.1156 55.3257C35.0057 56.2006 35.6755 56.9175 35.968 57.236C34.2518 59.1065 27.3606 66.1228 23.1881 66.0795C18.7631 66.0795 14.9959 62.7753 14.4255 58.3936C13.718 53.2509 17.6885 48.5492 22.8823 48.4127C26.4601 48.2177 31.3718 52.6697 34.1156 55.3257ZM8.95934 57.2423C8.95934 50.2434 14.0312 44.3289 20.8666 43.208L18.4185 46.1649C18.3014 46.2987 18.3569 46.5262 18.5223 46.5912L21.7667 47.9673C16.8829 48.6102 13.1539 53.51 13.8756 58.4051L12.6884 62.2915L9.22546 59.9888C9.04878 59.089 8.95934 58.1656 8.95934 57.2423ZM31.0973 68.6281C28.1696 70.5379 25.5814 71.4667 23.188 71.4667C16.6869 71.4667 10.9942 67.0041 9.39982 60.7617L12.691 62.9503C12.8372 63.0495 13.0566 62.9749 13.1042 62.8025L14.0936 59.5637C15.1368 63.6591 18.867 66.6265 23.188 66.6265C24.6465 66.6265 26.4763 65.8984 28.6283 64.4621L32.3414 65.1345L31.0973 68.6281ZM31.8618 68.1122L32.9648 65.0146C33.0235 64.8617 32.9178 64.679 32.756 64.6537L29.2612 64.0208C33.224 60.9485 34.6028 59.4816 36.3522 57.6263C37.5753 58.9265 39.1166 60.648 39.6264 61.2194C39.6264 61.2194 34.8587 66.2834 31.8618 68.1122ZM45.0188 65.6813C42.7541 63.7417 40.8948 61.7907 40.2045 61.046C39.5661 60.3221 36.4785 56.8756 34.5485 54.9842L33.384 51.1788L37.5501 51.1515C38.1871 51.7624 39.3163 52.9138 39.758 53.3908C43.819 57.5874 44.0426 58.8948 51.1063 64.2824L47.888 64.5789C47.7245 64.5901 47.6034 64.7627 47.6484 64.9202L48.5546 68.398C47.4259 67.6379 46.2393 66.7263 45.0188 65.6813ZM56.8121 71.4667C54.5085 71.4667 52.0293 70.608 49.2359 68.8426L48.259 65.0939L51.8363 64.7645C53.7866 66.0002 55.4603 66.6266 56.8121 66.6266C60.4384 66.6266 63.7407 64.5127 65.2854 61.285L65.9448 64.3188C65.9754 64.4806 66.1619 64.577 66.3126 64.515L69.7532 63.1527C67.4347 68.2251 62.4242 71.4667 56.8121 71.4667ZM23.2279 21.6751L20.313 20.3219C20.1762 20.2585 20.0134 20.3178 19.9498 20.4549C19.8862 20.5919 19.9459 20.7545 20.0829 20.8181L22.0462 21.7295C20.6537 21.9234 19.331 22.4923 18.241 23.3812C15.1214 25.9249 13.3323 29.6897 13.3323 33.7105C13.3323 36.3442 14.0996 38.8907 15.5512 41.0748C15.7565 41.3712 16.2005 41.0739 16.0069 40.772C14.615 38.6779 13.8793 36.2361 13.8793 33.7105C13.8793 29.8548 15.595 26.2444 18.5866 23.8052C19.6975 22.8994 21.0685 22.3501 22.5005 22.2276L20.9552 24.0698C20.7234 24.3381 21.1496 24.6966 21.3742 24.4212L23.2978 22.128C23.4239 21.9408 23.31 21.7135 23.2279 21.6751Z" fill="#223039"/>
<path d="M42.6724 70.0491C42.6724 69.7744 42.064 69.5426 41.2298 69.4675C41.1549 68.6332 40.9229 68.0248 40.6483 68.0248C40.3737 68.0248 40.1418 68.6332 40.0669 69.4675C39.2325 69.5425 38.6243 69.7744 38.6243 70.0491C38.6243 70.3239 39.2325 70.5557 40.0669 70.6307C40.1418 71.4651 40.3737 72.0735 40.6483 72.0735C40.9231 72.0735 41.1549 71.4651 41.2298 70.6307C42.0641 70.5558 42.6724 70.3239 42.6724 70.0491Z" fill="#68A706"/>
<path d="M28.4125 37.8847L29.3467 36.205L30.281 37.8847L31.9892 38.8032L30.281 39.7219L29.3467 41.4017L28.4125 39.7219L26.7043 38.8032L28.4125 37.8847Z" fill="white"/>
<path d="M19.8683 11.2765C19.7321 11.2765 19.5983 11.2868 19.4672 11.3047C18.8937 9.63574 17.3038 8.43506 15.4307 8.43506C13.5661 8.43506 11.9818 9.6248 11.4018 11.282C11.3512 11.2794 11.3008 11.2764 11.2495 11.2764C9.61667 11.2764 8.29291 12.5996 8.29291 14.232C8.29291 15.8644 9.61667 17.1876 11.2495 17.1876H19.8683C21.5011 17.1876 22.8249 15.8644 22.8249 14.232C22.8249 12.5996 21.5012 11.2765 19.8683 11.2765Z" fill="#F5F5F5"/>
<path d="M19.8683 17.4611H11.2495C9.46843 17.4611 8.01941 16.0124 8.01941 14.2319C8.01941 12.463 9.44943 11.0218 11.2145 11.0031C11.8992 9.29531 13.5685 8.1615 15.4307 8.1615C17.2983 8.1615 18.967 9.29777 19.6499 11.0107C19.7238 11.0054 19.7968 11.0028 19.8684 11.0028C21.6495 11.0028 23.0985 12.4514 23.0985 14.2319C23.0985 16.0124 21.6495 17.4611 19.8683 17.4611ZM11.2495 11.5499C9.77011 11.5499 8.56642 12.7531 8.56642 14.2321C8.56642 15.711 9.77011 16.9142 11.2495 16.9142H19.8683C21.3477 16.9142 22.5514 15.711 22.5514 14.2321C22.5634 12.6241 21.0969 11.344 19.5045 11.5757C19.3745 11.594 19.251 11.5171 19.2086 11.3935C18.6567 9.78748 17.1385 8.70851 15.4307 8.70851C13.7329 8.70851 12.2177 9.779 11.66 11.3723C11.6022 11.5517 11.4103 11.5681 11.2495 11.5499Z" fill="#223039"/>
<path d="M14.4258 13.7375C14.8204 13.7375 15.1402 13.3876 15.1402 12.956C15.1402 12.5243 14.8204 12.1744 14.4258 12.1744C14.0313 12.1744 13.7114 12.5243 13.7114 12.956C13.7114 13.3876 14.0313 13.7375 14.4258 13.7375Z" fill="#223039"/>
<path d="M14.2115 12.956C14.3299 12.956 14.4258 12.851 14.4258 12.7216C14.4258 12.5921 14.3299 12.4872 14.2115 12.4872C14.0932 12.4872 13.9973 12.5921 13.9973 12.7216C13.9973 12.851 14.0932 12.956 14.2115 12.956Z" fill="white"/>
<path d="M14.7116 13.3859C14.7709 13.3859 14.8189 13.3334 14.8189 13.2687C14.8189 13.204 14.7709 13.1515 14.7116 13.1515C14.6524 13.1515 14.6044 13.204 14.6044 13.2687C14.6044 13.3334 14.6524 13.3859 14.7116 13.3859Z" fill="white"/>
<path d="M18.88 13.7375C19.2745 13.7375 19.5944 13.3876 19.5944 12.956C19.5944 12.5243 19.2745 12.1744 18.88 12.1744C18.4854 12.1744 18.1656 12.5243 18.1656 12.956C18.1656 13.3876 18.4854 13.7375 18.88 13.7375Z" fill="#223039"/>
<path d="M19.0943 12.956C19.2126 12.956 19.3086 12.851 19.3086 12.7216C19.3086 12.5921 19.2126 12.4872 19.0943 12.4872C18.9759 12.4872 18.88 12.5921 18.88 12.7216C18.88 12.851 18.9759 12.956 19.0943 12.956Z" fill="white"/>
<path d="M18.5943 13.3859C18.6535 13.3859 18.7015 13.3334 18.7015 13.2687C18.7015 13.204 18.6535 13.1515 18.5943 13.1515C18.5351 13.1515 18.4871 13.204 18.4871 13.2687C18.4871 13.3334 18.5351 13.3859 18.5943 13.3859Z" fill="white"/>
<path d="M16.6528 16.1512C16.1053 16.1512 15.6597 15.7077 15.6597 15.1624V14.9745C15.6597 14.8612 15.7516 14.7694 15.8649 14.7694C15.9781 14.7694 16.07 14.8612 16.07 14.9745V15.1624C16.07 15.4815 16.3315 15.7409 16.6528 15.7409C16.9742 15.7409 17.2357 15.4815 17.2357 15.1624V14.9745C17.2357 14.8612 17.3276 14.7694 17.4408 14.7694C17.554 14.7694 17.6459 14.8612 17.6459 14.9745V15.1624C17.6459 15.7075 17.2004 16.1512 16.6528 16.1512Z" fill="#223039"/>
<path d="M14.3763 15.2956C14.7116 15.2956 14.9834 15.1267 14.9834 14.9183C14.9834 14.7099 14.7116 14.541 14.3763 14.541C14.0411 14.541 13.7693 14.7099 13.7693 14.9183C13.7693 15.1267 14.0411 15.2956 14.3763 15.2956Z" fill="#68A706"/>
<path d="M18.9295 15.2956C19.2648 15.2956 19.5365 15.1267 19.5365 14.9183C19.5365 14.7099 19.2648 14.541 18.9295 14.541C18.5942 14.541 18.3224 14.7099 18.3224 14.9183C18.3224 15.1267 18.5942 15.2956 18.9295 15.2956Z" fill="#68A706"/>
<path d="M68.7504 28.3213C68.6142 28.3213 68.4805 28.3315 68.3493 28.3495C67.7758 26.6805 66.1858 25.4799 64.3128 25.4799C62.4482 25.4799 60.8639 26.6696 60.284 28.3268C60.2334 28.3242 60.1829 28.3212 60.1316 28.3212C58.4988 28.3212 57.175 29.6444 57.175 31.2768C57.175 32.9091 58.4988 34.2324 60.1316 34.2324H68.7504C70.3833 34.2324 71.707 32.9092 71.707 31.2768C71.707 29.6445 70.3833 28.3213 68.7504 28.3213Z" fill="#F5F5F5"/>
<path d="M61.4992 29.6888C61.5504 29.6888 61.6009 29.6918 61.6515 29.6944C62.2316 28.0372 63.8157 26.8475 65.6803 26.8475C66.511 26.8475 67.2853 27.0845 67.9406 27.4928C67.189 26.2853 65.8462 25.48 64.3128 25.48C62.4482 25.48 60.8641 26.6697 60.284 28.3269C60.2334 28.3243 60.1829 28.3213 60.1316 28.3213C58.4988 28.3213 57.175 29.6445 57.175 31.2769C57.175 32.4461 57.8559 33.4539 58.8416 33.9332C58.652 33.5433 58.5426 33.1071 58.5426 32.6444C58.5426 31.012 59.8662 29.6888 61.4992 29.6888Z" fill="#B0F5EB"/>
<path d="M68.7505 28.0477C68.6789 28.0477 68.6058 28.0503 68.5319 28.0555C67.8491 26.3426 66.1806 25.2063 64.3127 25.2063C63.9565 25.2063 63.6075 25.2484 63.2709 25.3276C62.5401 24.5529 61.7036 23.8633 60.7714 23.2801C59.4606 22.4605 57.9178 22.0272 56.3096 22.0272C56.1586 22.0272 56.0361 22.1498 56.0361 22.3007C56.0361 22.4517 56.1586 22.5742 56.3096 22.5742C57.8151 22.5742 59.2577 22.9787 60.4813 23.744C61.2942 24.2525 62.0305 24.8464 62.6841 25.5087C61.5235 25.9534 60.5721 26.8615 60.0965 28.048C58.3316 28.0669 56.9014 29.5081 56.9014 31.2769C56.9014 33.0574 58.3505 34.506 60.1315 34.506H66.104C66.0057 36.5296 65.4048 38.4721 64.346 40.1898L64.1497 37.9535C64.1364 37.8029 64.0045 37.6916 63.8534 37.705C63.7028 37.7182 63.5916 37.8508 63.6049 38.0014L63.8698 41.021C63.8804 41.1954 64.0742 41.3183 64.2363 41.254L67.2541 40.1496C67.3959 40.0976 67.4688 39.9407 67.4169 39.7987C67.365 39.6568 67.2075 39.584 67.0661 39.6358L64.8242 40.4562C65.9286 38.6571 66.553 36.6236 66.6515 34.5059H68.7505C70.5315 34.5059 71.9806 33.0572 71.9806 31.2767C71.9806 29.4962 70.5317 28.0477 68.7505 28.0477ZM68.7505 33.9588H60.1317C58.6523 33.9588 57.4486 32.7557 57.4486 31.2767C57.4486 29.7978 58.6523 28.5947 60.1317 28.5947C60.1782 28.5947 60.224 28.5975 60.2701 28.5999C60.3888 28.6047 60.502 28.5316 60.5422 28.4171C61.0999 26.8238 62.6151 25.7533 64.3129 25.7533C66.0206 25.7533 67.5388 26.8323 68.0906 28.4383C68.1332 28.5618 68.2558 28.6386 68.3864 28.6205C69.979 28.3889 71.4456 29.6687 71.4335 31.2769C71.4335 32.7557 70.23 33.9588 68.7505 33.9588Z" fill="#223039"/>
<path d="M61.12 30.7823C61.5145 30.7823 61.8344 30.4324 61.8344 30.0008C61.8344 29.5691 61.5145 29.2192 61.12 29.2192C60.7254 29.2192 60.4056 29.5691 60.4056 30.0008C60.4056 30.4324 60.7254 30.7823 61.12 30.7823Z" fill="#223039"/>
<path d="M60.9057 30.0006C61.024 30.0006 61.12 29.8957 61.12 29.7663C61.12 29.6368 61.024 29.5319 60.9057 29.5319C60.7873 29.5319 60.6914 29.6368 60.6914 29.7663C60.6914 29.8957 60.7873 30.0006 60.9057 30.0006Z" fill="white"/>
<path d="M61.4056 30.4307C61.4648 30.4307 61.5128 30.3782 61.5128 30.3135C61.5128 30.2488 61.4648 30.1963 61.4056 30.1963C61.3464 30.1963 61.2984 30.2488 61.2984 30.3135C61.2984 30.3782 61.3464 30.4307 61.4056 30.4307Z" fill="white"/>
<path d="M65.5741 30.7823C65.9687 30.7823 66.2885 30.4324 66.2885 30.0008C66.2885 29.5691 65.9687 29.2192 65.5741 29.2192C65.1796 29.2192 64.8597 29.5691 64.8597 30.0008C64.8597 30.4324 65.1796 30.7823 65.5741 30.7823Z" fill="#223039"/>
<path d="M65.7884 30.0006C65.9067 30.0006 66.0027 29.8957 66.0027 29.7663C66.0027 29.6368 65.9067 29.5319 65.7884 29.5319C65.67 29.5319 65.5741 29.6368 65.5741 29.7663C65.5741 29.8957 65.67 30.0006 65.7884 30.0006Z" fill="white"/>
<path d="M65.2884 30.4307C65.3476 30.4307 65.3956 30.3782 65.3956 30.3135C65.3956 30.2488 65.3476 30.1963 65.2884 30.1963C65.2292 30.1963 65.1812 30.2488 65.1812 30.3135C65.1812 30.3782 65.2292 30.4307 65.2884 30.4307Z" fill="white"/>
<path d="M63.3471 33.1957C62.7995 33.1957 62.354 32.7522 62.354 32.207V32.0191C62.354 31.9057 62.4459 31.814 62.5591 31.814C62.6724 31.814 62.7643 31.9057 62.7643 32.0191V32.207C62.7643 32.526 63.0257 32.7855 63.3471 32.7855C63.6685 32.7855 63.9299 32.526 63.9299 32.207V32.0191C63.9299 31.9057 64.0218 31.814 64.1351 31.814C64.2483 31.814 64.3402 31.9057 64.3402 32.0191V32.207C64.3401 32.7522 63.8945 33.1957 63.3471 33.1957Z" fill="#223039"/>
<path d="M61.0705 32.3404C61.4057 32.3404 61.6775 32.1715 61.6775 31.9631C61.6775 31.7547 61.4057 31.5858 61.0705 31.5858C60.7352 31.5858 60.4634 31.7547 60.4634 31.9631C60.4634 32.1715 60.7352 32.3404 61.0705 32.3404Z" fill="#68A706"/>
<path d="M65.6236 32.3404C65.9589 32.3404 66.2307 32.1715 66.2307 31.9631C66.2307 31.7547 65.9589 31.5858 65.6236 31.5858C65.2884 31.5858 65.0166 31.7547 65.0166 31.9631C65.0166 32.1715 65.2884 32.3404 65.6236 32.3404Z" fill="#68A706"/>
</g>
<defs>
<clipPath id="clip0_417_10143">
<rect width="64" height="64" fill="white" transform="translate(8 8)"/>
</clipPath>
</defs>
</svg>
