<svg width="80" height="80" viewBox="0 0 80 80" fill="none" xmlns="http://www.w3.org/2000/svg">
<rect width="80" height="80" rx="8" fill="#EDFBF7"/>
<path fill-rule="evenodd" clip-rule="evenodd" d="M44.4827 12C56.7597 12 66.6667 21.7488 66.6667 33.7187C66.6667 39.3144 64.7992 43.0304 61.22 46.7187C60.4333 47.5294 59.9475 48.6278 59.9475 49.8086C59.9475 50.1691 59.9925 50.5283 60.0816 50.8776L62.5659 60.6187C62.8165 61.6011 62.2203 62.5771 61.2829 62.807L40.2939 67.9502C39.4048 68.168 38.4824 67.6454 38.2136 66.7232L36.3357 60.2803C35.7861 58.3947 34.0695 57.0838 32.102 57.0838H24.0449C23.0966 57.0838 22.2985 56.3003 22.2985 55.2974V49.0291C22.2985 47.2003 21.1883 45.5464 19.4838 44.8782L17.1226 43.9526C16.0016 43.5128 15.6259 42.0576 16.4298 41.112L21.2349 35.46C21.9295 34.6429 22.2754 33.6291 22.326 32.6278C22.9047 21.1636 32.5809 12 44.4827 12ZM69.3333 33.7187C69.3333 20.226 58.1821 9.33337 44.4827 9.33337C31.2 9.33337 20.315 19.5712 19.6627 32.4934C19.6379 32.9847 19.4713 33.4173 19.2032 33.7327L14.3981 39.3848C12.4246 41.7059 13.3011 45.3184 16.1492 46.435L18.5104 47.3608C19.1782 47.6227 19.6319 48.2808 19.6319 49.0291V55.2974C19.6319 57.7406 21.5914 59.7504 24.0449 59.7504H32.102C32.8643 59.7504 33.552 60.26 33.7755 61.0267L35.6536 67.4696C36.3144 69.7368 38.6272 71.1043 40.9285 70.5403L61.9176 65.3968C64.3229 64.8075 65.7597 62.3502 65.1499 59.9595L62.6656 50.2187C62.6315 50.0848 62.6141 49.947 62.6141 49.8086C62.6141 49.367 62.7971 48.9224 63.1336 48.576C67.1203 44.468 69.3333 40.1091 69.3333 33.7187Z" fill="#223039"/>
<path fill-rule="evenodd" clip-rule="evenodd" d="M46.0445 17.3334C45.5941 17.3334 45.1744 17.5605 44.9283 17.9375L36.2171 31.2708C35.9493 31.6806 35.9277 32.2041 36.1608 32.6346C36.3936 33.0651 36.8437 33.3334 37.3333 33.3334H44.1235L39.8176 44.867C39.5907 45.475 39.8344 46.1582 40.3949 46.4851C40.9555 46.812 41.6701 46.6878 42.0877 46.191L57.0208 28.4132C57.3544 28.0163 57.4275 27.4622 57.2085 26.9924C56.9896 26.5226 56.5181 26.2223 56 26.2223H49.5637L53.4299 19.3182C53.6611 18.9053 53.6563 18.4008 53.4168 17.9925C53.1776 17.5842 52.7397 17.3334 52.2667 17.3334H46.0445Z" fill="#68A706"/>
</svg>
