<svg width="80" height="80" viewBox="0 0 80 80" fill="none" xmlns="http://www.w3.org/2000/svg">
<rect width="80" height="80" rx="8" fill="#EDFBF7"/>
<path d="M70.6667 24.0001H62.6667C61.9307 24.0001 61.3333 24.5974 61.3333 25.3334V26.6667L49.4347 21.7094C47.64 20.9681 45.6187 21.0347 43.8853 21.9014L36.2667 25.7147L35.4213 24.8694C33.5307 22.9761 30.7147 22.4081 28.24 23.4054L16.8267 28.0987C16.1467 28.3814 15.8213 29.1601 16.1013 29.8401C16.3813 30.5281 17.1653 30.8427 17.84 30.5681L29.2453 25.8774C30.7253 25.2721 32.2987 25.5174 33.832 27.0507C32.824 27.8054 32.1333 28.8934 31.928 30.1707C31.2907 34.1227 35.3973 37.1654 39.0027 35.3547L41.088 34.3041L48.4453 41.6587C49.368 42.5814 49.368 44.0801 48.3387 45.1067C47.416 46.0294 45.92 46.0294 44.9973 45.1067L42.2773 42.3867C41.7573 41.8667 40.912 41.8667 40.392 42.3867C39.872 42.9067 39.872 43.7521 40.392 44.2721L43.1147 46.9947C44.0373 47.9174 44.0373 49.4054 43.1147 50.3281C42.2267 51.2161 40.672 51.2214 39.7787 50.3281C39.7787 50.3281 36.3973 46.9441 36.3947 46.9387C35.8747 46.4187 35.024 46.4187 34.504 46.9387C33.984 47.4587 33.984 48.3041 34.504 48.8241L37.2373 51.5574C37.6773 52.0027 37.9227 52.5894 37.9227 53.2161C37.9227 53.8454 37.6773 54.4374 37.1973 54.9227C36.2907 55.8267 34.8053 55.8401 33.8533 54.9147L27.7013 49.3307C24.856 46.7547 21.1733 45.3334 17.3333 45.3334C16.5973 45.3334 16 45.9307 16 46.6667C16 47.4027 16.5973 48.0001 17.3333 48.0001C20.5093 48.0001 23.5547 49.1734 25.904 51.3094L32.024 56.8614C33.984 58.7681 37.1493 58.7414 39.1173 56.7734C39.976 55.9174 40.4613 54.8001 40.552 53.6027C42.2587 53.9067 43.8667 53.3547 45 52.2187C45.9573 51.2641 46.52 49.9841 46.448 48.4347C47.6747 48.4801 48.7333 48.1121 49.6533 47.4454C53.4267 48.7361 57.008 50.7254 60.5333 47.6374L61.3333 46.9361V49.3334C61.3333 50.0694 61.9307 50.6667 62.6667 50.6667H70.6667C71.4027 50.6667 72 50.0694 72 49.3334V25.3334C72 24.5974 71.4027 24.0001 70.6667 24.0001ZM58.776 45.6321C56.584 47.5441 54.2613 46.2054 51.4267 45.2374C52.168 43.4187 51.8027 41.2481 50.328 39.7761L43.592 33.0427L47.264 31.1921C47.9227 30.8614 48.1867 30.0587 47.8533 29.4027C47.52 28.7441 46.72 28.4801 46.064 28.8107C45.1333 29.2801 38.7253 32.5094 37.8 32.9787C36.1547 33.8054 34.2667 32.4107 34.56 30.6001C34.8587 28.7494 36.568 28.5467 45.08 24.2881C46.1173 23.7681 47.3307 23.7254 48.408 24.1734L61.3333 29.5574V43.3974L58.776 45.6321ZM69.3333 48.0001H64C64 39.7227 64 35.0454 64 26.6667H69.3333V48.0001Z" fill="#223039"/>
<path d="M17.3333 50.6667H9.33333C8.59733 50.6667 8 50.0693 8 49.3333V25.3333C8 24.5973 8.59733 24 9.33333 24H17.3333C18.0693 24 18.6667 24.5973 18.6667 25.3333V49.3333C18.6667 50.0693 18.0693 50.6667 17.3333 50.6667Z" fill="#68A706"/>
</svg>
