<svg width="80" height="80" viewBox="0 0 80 80" fill="none" xmlns="http://www.w3.org/2000/svg">
<rect width="80" height="80" rx="8" fill="#EDFBF7"/>
<path d="M16.7094 10.8103V69.1897C16.7094 70.3966 17.6878 71.375 18.8947 71.375H61.1052C62.3121 71.375 63.2905 70.3966 63.2905 69.1897V10.8103C63.2905 9.60338 62.3121 8.625 61.1052 8.625H18.8948C17.6878 8.625 16.7094 9.6034 16.7094 10.8103Z" fill="#EDF4FC"/>
<path d="M44.0544 25.6925H25.596L25.8445 24.5H44.3029L44.0544 25.6925ZM48.2515 28.0189H30.0874L30.3381 26.8243H48.5L48.2515 28.0189ZM39.1182 30.25H24.75L25.0007 29.0553H39.3667L39.1182 30.25Z" fill="#5C94B9"/>
<path d="M52.9999 30.4382H40.6243L40.8766 29.25H53.25L52.9999 30.4382ZM47.2334 32.75H30.5L30.7523 31.5639H47.4835L47.2334 32.75Z" fill="#68A706"/>
<path d="M53.75 34.957H26.8961L27.144 33.75H54L53.75 34.957ZM51.5736 37.4017H23.5L23.7479 36.1969H51.8214L51.5736 37.4017ZM43.0963 39.75H27.3397L27.5897 38.5452H43.3441L43.0963 39.75Z" fill="#5C94B9"/>
<path d="M35.072 42.1777H22.5L22.7522 41H35.3242L35.072 42.1777ZM53.25 42.1777H36.3704L36.6204 41H53.5L53.25 42.1777ZM41.4128 49H25.5202L25.7702 47.8201H41.665L41.4128 49Z" fill="#5C94B9"/>
<path d="M54.2541 49H42.75L42.9959 47.75H54.5L54.2541 49Z" fill="#68A706"/>
<path d="M33.4706 51.25H21L21.248 50H33.7186L33.4706 51.25ZM51.502 51.25H34.7564L35.0044 50H51.75L51.502 51.25Z" fill="#5C94B9"/>
<path d="M42.0008 44.5H27.5L27.7492 43.25H42.25L42.0008 44.5Z" fill="#68A706"/>
<path d="M47.7135 46.7673H24.266L24.5148 45.5603H47.9623L47.7135 46.7673ZM55.1292 52.7343L55.2361 52.2142C55.4859 52.2581 55.7432 52.2147 55.9651 52.0913C56.1662 51.9205 56.2943 51.6785 56.323 51.4154L56.6023 50.057C56.7216 49.4718 57.0046 49.1192 57.4513 48.9992C57.0562 48.8741 56.9188 48.523 57.0388 47.9414L57.3203 46.583C57.388 46.2472 57.364 46.0212 57.2396 45.9093C57.1152 45.7974 56.8926 45.7535 56.563 45.7864L56.67 45.2663C57.1486 45.2224 57.4905 45.3102 57.6957 45.5296C57.9008 45.7491 57.9532 46.1002 57.8528 46.583L57.5735 47.937C57.5058 48.264 57.5276 48.4769 57.6346 48.58C57.8146 48.7042 58.0329 48.7595 58.25 48.7359L58.1431 49.2538C57.9068 49.2371 57.6708 49.2905 57.4643 49.4074C57.2794 49.5733 57.1627 49.8025 57.137 50.0504L56.8555 51.4088C56.7968 51.8227 56.5848 52.1989 56.2619 52.4622C55.9321 52.6936 55.5274 52.7908 55.1292 52.7343ZM21.8043 29.222C21.5992 29.0025 21.5468 28.6514 21.6472 28.1686L21.9265 26.8102C21.9942 26.4832 21.9724 26.2703 21.8654 26.1672C21.6855 26.0426 21.4671 25.9873 21.25 26.0113L21.3569 25.4912C21.5932 25.5079 21.8292 25.4545 22.0357 25.3376C22.2206 25.1717 22.3373 24.9425 22.363 24.6946L22.6445 23.3362C22.7037 22.9219 22.9156 22.5451 23.2381 22.2806C23.5699 22.0522 23.9752 21.9581 24.373 22.0173L24.2639 22.5374C24.0141 22.4918 23.7563 22.5353 23.5349 22.6603C23.3338 22.8311 23.2057 23.0731 23.177 23.3362L22.8977 24.6946C22.7784 25.2798 22.4954 25.6324 22.0488 25.7524C22.4438 25.8775 22.5812 26.2286 22.4612 26.8102L22.1797 28.1686C22.1099 28.5043 22.1382 28.7304 22.2604 28.8423C22.3827 28.9542 22.6074 28.9981 22.9392 28.9652L22.83 29.4853C22.3521 29.5292 22.0117 29.4414 21.8043 29.222Z" fill="#5C94B9"/>
<path d="M23.375 8.625H18.8948C17.6879 8.625 16.7094 9.6034 16.7094 10.8103V14.875H23.375V8.625Z" fill="#68A706"/>
<g filter="url(#filter0_b_417_10046)">
<path d="M54.9635 64.5644H37.992C36.1601 64.5644 34.6613 63.0656 34.6613 61.2337V43.9775C34.6613 42.1456 36.1601 40.6467 37.992 40.6467H54.9635C56.7954 40.6467 58.2942 42.1456 58.2942 43.9775V61.2337C58.2942 63.0656 56.7954 64.5644 54.9635 64.5644Z" fill="#DBF6EE" fill-opacity="0.1"/>
</g>
<path d="M61.1052 72H18.8948C17.3452 72 16.0845 70.7393 16.0845 69.1897V10.8103C16.0845 9.26075 17.3452 8 18.8948 8H61.1052C62.6548 8 63.9155 9.26075 63.9155 10.8103V69.1897C63.9155 70.7393 62.6548 72 61.1052 72ZM18.8948 9.25C18.0344 9.25 17.3345 9.94995 17.3345 10.8103V69.1897C17.3345 70.0501 18.0344 70.75 18.8948 70.75H61.1052C61.9656 70.75 62.6655 70.0501 62.6655 69.1897V10.8103C62.6655 9.94995 61.9656 9.25 61.1052 9.25H18.8948Z" fill="#223039"/>
<path d="M52.1865 12.5H27.2612C26.916 12.5 26.6362 12.2202 26.6362 11.875C26.6362 11.5298 26.916 11.25 27.2612 11.25H52.1865C52.5318 11.25 52.8115 11.5298 52.8115 11.875C52.8115 12.2202 52.5318 12.5 52.1865 12.5ZM59.1563 12.5H56.0652C55.72 12.5 55.4402 12.2202 55.4402 11.875C55.4402 11.5298 55.72 11.25 56.0652 11.25H59.1563C59.5015 11.25 59.7813 11.5298 59.7813 11.875C59.7813 12.2202 59.5015 12.5 59.1563 12.5ZM42.6533 49.7766C42.3081 49.7766 42.0283 49.4968 42.0283 49.1516V47.5505C42.0283 45.0971 44.0244 43.1012 46.4778 43.1012C48.4514 43.1012 50.21 44.4246 50.7544 46.3195C50.8499 46.6513 50.6582 46.9975 50.3264 47.0929C49.9951 47.1891 49.6485 46.9965 49.5532 46.6648C49.1616 45.3026 47.897 44.3512 46.4778 44.3512C44.7136 44.3512 43.2783 45.7864 43.2783 47.5505V49.1516C43.2783 49.4968 42.9985 49.7766 42.6533 49.7766ZM43.6621 57.8822C43.5022 57.8822 43.3423 57.8212 43.2202 57.6991L41.5596 56.0384C41.3154 55.7944 41.3154 55.3987 41.5596 55.1547L43.2202 53.494C43.4644 53.2499 43.8599 53.2499 44.104 53.494C44.3482 53.738 44.3482 54.1338 44.104 54.3778L42.8853 55.5965L44.104 56.8153C44.3482 57.0593 44.3482 57.4551 44.104 57.6991C43.9819 57.8212 43.822 57.8822 43.6621 57.8822ZM49.2935 57.8822C49.1336 57.8822 48.9736 57.8212 48.8516 57.6991C48.6074 57.4551 48.6074 57.0593 48.8516 56.8153L50.0703 55.5965L48.8516 54.3778C48.6074 54.1338 48.6074 53.738 48.8516 53.494C49.0957 53.2499 49.4912 53.2499 49.7354 53.494L51.396 55.1547C51.6402 55.3987 51.6402 55.7944 51.396 56.0384L49.7354 57.6991C49.6133 57.8212 49.4534 57.8822 49.2935 57.8822ZM45.6187 57.9179C45.531 57.9179 45.4421 57.8993 45.3572 57.8602C45.0437 57.7156 44.907 57.3442 45.0518 57.0308L46.6174 53.6384C46.762 53.3251 47.1326 53.1881 47.4468 53.3329C47.76 53.4775 47.897 53.8489 47.7522 54.1623L46.1865 57.5547C46.0811 57.7832 45.855 57.9179 45.6187 57.9179Z" fill="#223039"/>
<path d="M63.2905 15.5H16.7095C16.3642 15.5 16.0845 15.2202 16.0845 14.875V10.8103C16.0845 9.26075 17.3452 8 18.8948 8H61.1052C62.6548 8 63.9155 9.26075 63.9155 10.8103V14.875C63.9155 15.2202 63.6357 15.5 63.2905 15.5ZM17.3345 14.25H62.6655V10.8103C62.6655 9.94995 61.9656 9.25 61.1052 9.25H18.8948C18.0344 9.25 17.3345 9.94995 17.3345 10.8103V14.25Z" fill="#223039"/>
<path d="M54.9636 65.1895H37.9921C35.8108 65.1895 34.0363 63.415 34.0363 61.2338V43.9774C34.0363 41.7963 35.8108 40.0217 37.9921 40.0217H54.9636C57.1448 40.0217 58.9192 41.7963 58.9192 43.9774V61.2338C58.9192 63.415 57.1448 65.1895 54.9636 65.1895ZM37.9921 41.2718C36.5001 41.2718 35.2863 42.4855 35.2863 43.9775V61.2338C35.2863 62.7258 36.5001 63.9395 37.9921 63.9395H54.9636C56.4556 63.9395 57.6692 62.7258 57.6692 61.2338V43.9775C57.6692 42.4855 56.4556 41.2718 54.9636 41.2718H37.9921Z" fill="#223039"/>
<path d="M51.6162 62.0708H41.3394C39.8827 62.0708 38.6975 60.8856 38.6975 59.429V51.6398C38.6975 50.1831 39.8827 48.9979 41.3394 48.9979H51.6162C53.073 48.9979 54.2581 50.1831 54.2581 51.6398V59.429C54.2581 60.8856 53.073 62.0708 51.6162 62.0708ZM41.3394 50.2479C40.5718 50.2479 39.9475 50.8723 39.9475 51.6398V59.429C39.9475 60.1964 40.5718 60.8208 41.3394 60.8208H51.6162C52.3838 60.8208 53.0081 60.1964 53.0081 59.429V51.6398C53.0081 50.8723 52.3838 50.2479 51.6162 50.2479H41.3394Z" fill="#223039"/>
<defs>
<filter id="filter0_b_417_10046" x="30.6613" y="36.6467" width="31.633" height="31.9177" filterUnits="userSpaceOnUse" color-interpolation-filters="sRGB">
<feFlood flood-opacity="0" result="BackgroundImageFix"/>
<feGaussianBlur in="BackgroundImageFix" stdDeviation="2"/>
<feComposite in2="SourceAlpha" operator="in" result="effect1_backgroundBlur_417_10046"/>
<feBlend mode="normal" in="SourceGraphic" in2="effect1_backgroundBlur_417_10046" result="shape"/>
</filter>
</defs>
</svg>
