<svg width="80" height="80" viewBox="0 0 80 80" fill="none" xmlns="http://www.w3.org/2000/svg">
<rect width="80" height="80" rx="8" fill="#EDFBF7"/>
<mask id="path-2-inside-1_417_10192" fill="white">
<path d="M46.5164 51.4036L63.3891 45.8182C65.3673 45.2363 67.3455 46.4 67.8109 48.2618C68.16 49.7745 67.4618 51.2872 66.1818 51.9854L46.2836 63.5054C42.7927 65.4836 38.4873 65.6 34.88 63.5054L24.7564 57.8036V39.1854H32.6691C33.7164 39.1854 34.7636 39.6509 35.4618 40.4654L36.6255 41.7454C37.3236 42.56 38.3709 43.0254 39.4182 43.0254H44.8873C47.2145 43.0254 49.1927 45.0036 49.1927 47.3309C49.1927 49.6582 47.2145 51.6363 44.8873 51.6363H36.3927"/>
</mask>
<path d="M63.3891 45.8182L63.1069 44.8588L63.0908 44.8635L63.0748 44.8688L63.3891 45.8182ZM67.8109 48.2618L68.7853 48.0369L68.7833 48.0281L68.781 48.0193L67.8109 48.2618ZM66.1818 51.9854L65.703 51.1075L65.6918 51.1136L65.6808 51.12L66.1818 51.9854ZM46.2836 63.5054L46.7767 64.3755L46.7847 64.3709L46.2836 63.5054ZM34.88 63.5054L35.3822 62.6406L35.3707 62.6341L34.88 63.5054ZM24.7564 57.8036H23.7564V58.3881L24.2656 58.6749L24.7564 57.8036ZM24.7564 39.1854V38.1854H23.7564V39.1854H24.7564ZM35.4618 40.4654L34.7026 41.1162L34.7121 41.1273L34.7219 41.1381L35.4618 40.4654ZM36.6255 41.7454L37.3847 41.0946L37.3752 41.0836L37.3654 41.0728L36.6255 41.7454ZM46.8306 52.3529L63.7034 46.7675L63.0748 44.8688L46.2021 50.4543L46.8306 52.3529ZM63.6713 46.7775C65.1164 46.3525 66.5163 47.2063 66.8408 48.5043L68.781 48.0193C68.1747 45.5937 65.6181 44.1202 63.1069 44.8588L63.6713 46.7775ZM66.8365 48.4866C67.0863 49.569 66.5831 50.6274 65.703 51.1075L66.6607 52.8633C68.3405 51.947 69.2337 49.9801 68.7853 48.0369L66.8365 48.4866ZM65.6808 51.12L45.7826 62.64L46.7847 64.3709L66.6828 52.8509L65.6808 51.12ZM45.7906 62.6354C42.5917 64.4481 38.6655 64.5471 35.3821 62.6406L34.3779 64.3702C38.309 66.6528 42.9938 66.5191 46.7766 64.3754L45.7906 62.6354ZM35.3707 62.6341L25.2471 56.9323L24.2656 58.6749L34.3893 64.3767L35.3707 62.6341ZM25.7564 57.8036V39.1854H23.7564V57.8036H25.7564ZM24.7564 40.1854H32.6691V38.1854H24.7564V40.1854ZM32.6691 40.1854C33.431 40.1854 34.1986 40.5283 34.7026 41.1162L36.2211 39.8146C35.3287 38.7735 34.0017 38.1854 32.6691 38.1854V40.1854ZM34.7219 41.1381L35.8855 42.4181L37.3654 41.0728L36.2018 39.7928L34.7219 41.1381ZM35.8662 42.3962C36.7586 43.4374 38.0856 44.0254 39.4182 44.0254V42.0254C38.6563 42.0254 37.8887 41.6826 37.3847 41.0946L35.8662 42.3962ZM39.4182 44.0254H44.8873V42.0254H39.4182V44.0254ZM44.8873 44.0254C46.6623 44.0254 48.1927 45.5559 48.1927 47.3309H50.1927C50.1927 44.4513 47.7668 42.0254 44.8873 42.0254V44.0254ZM48.1927 47.3309C48.1927 49.1059 46.6623 50.6363 44.8873 50.6363V52.6363C47.7668 52.6363 50.1927 50.2104 50.1927 47.3309H48.1927ZM44.8873 50.6363H36.3927V52.6363H44.8873V50.6363Z" fill="black" mask="url(#path-2-inside-1_417_10192)"/>
<path opacity="0.4" d="M49.4255 59.2C49.1927 59.2 49.0764 59.0836 48.96 58.9673C48.8436 58.7345 48.8436 58.3855 49.1927 58.1527L57.3382 53.4982C57.5709 53.3818 57.92 53.3818 58.1527 53.7309C58.2691 53.9636 58.2691 54.3127 57.92 54.5455L49.7746 59.2C49.6582 59.0836 49.5418 59.2 49.4255 59.2Z" fill="#68A706"/>
<path d="M25.4545 39.0691V57.92C25.4545 59.2 24.2909 60.3637 23.0109 60.3637H14.5164C13.12 60.3637 12.0727 59.3164 12.0727 57.92V39.0691C12.0727 37.6728 13.12 36.6255 14.5164 36.6255H23.0109C24.2909 36.6255 25.4545 37.6728 25.4545 39.0691Z" fill="#68A706"/>
<path d="M16.7273 54.08C16.7273 55.2437 17.6582 56.1746 18.8218 56.1746C19.9855 56.1746 20.9164 55.2437 20.9164 54.08C20.9164 52.9164 19.9855 51.9855 18.8218 51.9855C17.6582 51.9855 16.7273 52.9164 16.7273 54.08Z" fill="#053A2B"/>
<path d="M42.0799 30.249C42.3371 31.2123 41.6411 32.1691 40.5818 32.1691H40.5613H40.5408H40.5201H40.4994H40.4786H40.4578H40.4369H40.4159H40.3948H40.3737H40.3525H40.3313H40.3099H40.2885H40.2671H40.2455H40.2239H40.2023H40.1805H40.1587H40.1369H40.1149H40.0929H40.0709H40.0487H40.0265H40.0043H39.9819H39.9596H39.9371H39.9146H39.892H39.8694H39.8467H39.8239H39.8011H39.7782H39.7552H39.7322H39.7092H39.686H39.6628H39.6396H39.6163H39.5929H39.5695H39.546H39.5224H39.4988H39.4752H39.4514H39.4277H39.4038H39.3799H39.356H39.332H39.3079H39.2838H39.2596H39.2354H39.2111H39.1868H39.1624H39.1379H39.1134H39.0889H39.0643H39.0396H39.0149H38.9902H38.9654H38.9405H38.9156H38.8906H38.8656H38.8405H38.8154H38.7902H38.765H38.7397H38.7144H38.6891H38.6637H38.6382H38.6127H38.5871H38.5615H38.5359H38.5102H38.4844H38.4586H38.4328H38.4069H38.381H38.355H38.329H38.3029H38.2768H38.2507H38.2245H38.1983H38.172H38.1456H38.1193H38.0929H38.0664H38.0399H38.0134H37.9868H37.9602H37.9336H37.9069H37.8801H37.8534H37.8266H37.7997H37.7728H37.7459H37.7189H37.6919H37.6649H37.6378H37.6107H37.5835H37.5563H37.5291H37.5018H37.4745H37.4472H37.4198H37.3924H37.365H37.3375H37.31H37.2825H37.2549H37.2273H37.1997H37.172H37.1443H37.1166H37.0888H37.061H37.0332H37.0053H36.9774H36.9495H36.9216H36.8936H36.8656H36.8375H36.8095H36.7814H36.7532H36.7251H36.6969H36.6687H36.6405H36.6122H36.5839H36.5556H36.5273H36.4989H36.4705H36.4421H36.4137H36.3852H36.3567H36.3282H36.2997H36.2711H36.2426H36.214H36.1853H36.1567H36.128H36.0993H36.0706H36.0419H36.0131H35.9844H35.9556H35.9268H35.8979H35.8691H35.8402H35.8113H35.7824H35.7535H35.7245H35.6956H35.6666H35.6376H35.6086H35.5795H35.5505H35.5214H35.4924H35.4633H35.4342H35.405H35.3759H35.3468H35.3176H35.2884H35.2592H35.23H35.2008H35.1716H35.1423H35.1131H35.0838H35.0545H35.0252H34.996H34.9666H34.9373H34.908H34.8787H34.8493H34.82H34.7906H34.7612H34.7318H34.7025H34.6731H34.6437H34.6142H34.5848H34.5554H34.526H34.4965H34.4671H34.4376H34.4082H34.3787H34.3493H34.3198H34.2903H34.2609H34.2314H34.2019H34.1724H34.143H34.1135H34.084H34.0545H34.025H33.9955H33.966H33.9365H33.907H33.8776H33.8481H33.8186H33.7891H33.7596H33.7301H33.7006H33.6711H33.6417H33.6122H33.5827H33.5532H33.5238H33.4943H33.4649H33.4354H33.4059H33.3765H33.3471H33.3176H33.2882H33.2588H33.2294H33.2H33.1706H33.1412H33.1118H33.0824H33.053H33.0237H32.9943H32.965H32.9356H32.9063H32.877H32.8477H32.8184H32.7891H32.7598H32.7306H32.7013H32.6721H32.6429H32.6137H32.5845H32.5553H32.5261H32.4969H32.4678H32.4387H32.4095H32.3804H32.3513H32.3223H32.2932H32.2642H32.2352H32.2061H32.1772H32.1482H32.1192H32.0903H32.0614H32.0325H32.0036H31.9747H31.9459H31.917H31.8882H31.8594H31.8307H31.8019H31.7732H31.7445H31.7158H31.6872H31.6585H31.6299H31.6013H31.5727H31.5442H31.5156H31.4871H31.4587H31.4302H31.4018H31.3734H31.345H31.3166H31.2883H31.26H31.2317H31.2035H31.1753H31.1471H31.1189H31.0908H31.0626H31.0346H31.0065H30.9785H30.9505H30.9225H30.8946H30.8667H30.8388H30.8109H30.7831H30.7553H30.7276H30.6998H30.6721H30.6445H30.6169H30.5893H30.5617H30.5342H30.5067H30.4792H30.4518H30.4244H30.397H30.3697H30.3424H30.3152H30.288H30.2608H30.2336H30.2065H30.1795H30.1524H30.1254H30.0985H30.0716H30.0447H30.0179H29.9911H29.9643H29.9376H29.9109H29.8842H29.8576H29.8311H29.8046H29.7781H29.7517H29.7253H29.6989H29.6726H29.6463H29.6201H29.5939H29.5678H29.5417H29.5157H29.4897H29.4637H29.4378H29.4119H29.3861H29.3603H29.3346H29.3089H29.2833H29.2577H29.2321H29.2066H29.1812H29.1558H29.1304H29.1051H29.0799H29.0547H29.0295H29.0044H28.9794H28.9544H28.9294H28.9045H28.8797H28.8549H28.8301H28.8054H28.7808H28.7562H28.7317H28.7072H28.6828H28.6584H28.6341H28.6098H28.5856H28.5614H28.5373H28.5133H28.4893H28.4654H28.4415H28.4177H28.3939H28.3702H28.3466H28.323H28.2995H28.276H28.2526H28.2292H28.2059H28.1827H28.1595H28.1364H28.1134H28.0904H28.0674H28.0446H28.0218H27.999H27.9763H27.9537H27.9311H27.9087H27.8862H27.8639H27.8415H27.8193H27.7971H27.775H27.753H27.731H27.7091H27.6872H27.6655H27.6437H27.6221H27.6005H27.579H27.5575H27.5362H27.5149H27.4936H27.4724H27.4513H27.4303H27.4093H27.3884H27.3676H27.3469H27.3262H27.3056H27.285H27.2646H27.2442H27.2238H27.2036H27.1834H27.1633H27.1433H27.1233H27.1034H27.0836C26.0213 32.1691 25.3243 31.2068 25.5878 30.2407C26.5742 26.624 29.863 24.0928 33.8327 24.0928C37.6694 24.0928 40.9743 26.7251 42.0799 30.249ZM36.7073 18.4728C36.7073 20.1748 35.302 21.58 33.6 21.58C31.898 21.58 30.4927 20.1748 30.4927 18.4728C30.4927 16.7707 31.898 15.3655 33.6 15.3655C35.302 15.3655 36.7073 16.7707 36.7073 18.4728ZM67.098 30.249C67.3552 31.2123 66.6593 32.1691 65.6 32.1691H65.5788H65.5576H65.5363H65.5149H65.4935H65.472H65.4504H65.4288H65.4071H65.3853H65.3635H65.3416H65.3197H65.2977H65.2756H65.2535H65.2313H65.209H65.1867H65.1643H65.1419H65.1194H65.0968H65.0742H65.0515H65.0287H65.0059H64.9831H64.9601H64.9372H64.9141H64.891H64.8679H64.8446H64.8214H64.798H64.7747H64.7512H64.7277H64.7042H64.6805H64.6569H64.6332H64.6094H64.5855H64.5617H64.5377H64.5137H64.4897H64.4656H64.4414H64.4172H64.393H64.3686H64.3443H64.3199H64.2954H64.2709H64.2463H64.2217H64.197H64.1723H64.1475H64.1227H64.0979H64.0729H64.048H64.023H63.9979H63.9728H63.9476H63.9224H63.8972H63.8719H63.8465H63.8211H63.7957H63.7702H63.7447H63.7191H63.6935H63.6678H63.6421H63.6164H63.5906H63.5647H63.5388H63.5129H63.4869H63.4609H63.4349H63.4088H63.3826H63.3565H63.3302H63.304H63.2777H63.2513H63.2249H63.1985H63.1721H63.1456H63.119H63.0924H63.0658H63.0392H63.0125H62.9857H62.959H62.9322H62.9053H62.8784H62.8515H62.8246H62.7976H62.7706H62.7435H62.7164H62.6893H62.6621H62.6349H62.6077H62.5804H62.5531H62.5258H62.4985H62.4711H62.4436H62.4162H62.3887H62.3612H62.3336H62.306H62.2784H62.2508H62.2231H62.1954H62.1676H62.1399H62.1121H62.0843H62.0564H62.0285H62.0006H61.9727H61.9447H61.9167H61.8887H61.8607H61.8326H61.8045H61.7764H61.7483H61.7201H61.6919H61.6637H61.6354H61.6072H61.5789H61.5506H61.5222H61.4939H61.4655H61.4371H61.4086H61.3802H61.3517H61.3232H61.2947H61.2662H61.2376H61.209H61.1804H61.1518H61.1232H61.0945H61.0658H61.0372H61.0084H60.9797H60.951H60.9222H60.8934H60.8646H60.8358H60.807H60.7781H60.7492H60.7204H60.6915H60.6626H60.6336H60.6047H60.5757H60.5468H60.5178H60.4888H60.4598H60.4307H60.4017H60.3727H60.3436H60.3145H60.2854H60.2563H60.2272H60.1981H60.169H60.1398H60.1107H60.0815H60.0524H60.0232H59.994H59.9648H59.9356H59.9064H59.8772H59.8479H59.8187H59.7895H59.7602H59.731H59.7017H59.6724H59.6432H59.6139H59.5846H59.5553H59.526H59.4967H59.4674H59.4381H59.4088H59.3795H59.3502H59.3208H59.2915H59.2622H59.2329H59.2036H59.1742H59.1449H59.1156H59.0862H59.0569H59.0276H58.9982H58.9689H58.9396H58.9102H58.8809H58.8516H58.8223H58.7929H58.7636H58.7343H58.705H58.6757H58.6464H58.6171H58.5878H58.5585H58.5292H58.4999H58.4706H58.4414H58.4121H58.3828H58.3536H58.3243H58.2951H58.2658H58.2366H58.2074H58.1782H58.149H58.1198H58.0906H58.0614H58.0322H58.0031H57.9739H57.9448H57.9156H57.8865H57.8574H57.8283H57.7992H57.7701H57.7411H57.712H57.683H57.6539H57.6249H57.5959H57.5669H57.538H57.509H57.48H57.4511H57.4222H57.3933H57.3644H57.3355H57.3067H57.2778H57.249H57.2202H57.1914H57.1627H57.1339H57.1052H57.0765H57.0478H57.0191H56.9904H56.9618H56.9331H56.9045H56.876H56.8474H56.8188H56.7903H56.7618H56.7333H56.7049H56.6765H56.648H56.6196H56.5913H56.5629H56.5346H56.5063H56.478H56.4498H56.4216H56.3934H56.3652H56.337H56.3089H56.2808H56.2527H56.2247H56.1966H56.1686H56.1407H56.1127H56.0848H56.0569H56.0291H56.0012H55.9734H55.9457H55.9179H55.8902H55.8625H55.8349H55.8072H55.7797H55.7521H55.7246H55.6971H55.6696H55.6422H55.6147H55.5874H55.56H55.5327H55.5055H55.4782H55.451H55.4238H55.3967H55.3696H55.3425H55.3155H55.2885H55.2615H55.2346H55.2077H55.1809H55.154H55.1273H55.1005H55.0738H55.0472H55.0205H54.9939H54.9674H54.9409H54.9144H54.888H54.8616H54.8352H54.8089H54.7826H54.7564H54.7302H54.704H54.6779H54.6519H54.6258H54.5999H54.5739H54.548H54.5222H54.4964H54.4706H54.4449H54.4192H54.3936H54.368H54.3424H54.3169H54.2915H54.2661H54.2407H54.2154H54.1901H54.1649H54.1397H54.1146H54.0895H54.0645H54.0395H54.0146H53.9897H53.9649H53.9401H53.9153H53.8907H53.866H53.8414H53.8169H53.7924H53.768H53.7436H53.7193H53.695H53.6708H53.6466H53.6225H53.5984H53.5744H53.5505H53.5266H53.5027H53.4789H53.4552H53.4315H53.4079H53.3843H53.3608H53.3373H53.3139H53.2906H53.2673H53.2441H53.2209H53.1978H53.1747H53.1517H53.1288H53.1059H53.0831H53.0603H53.0376H53.0149H52.9924H52.9698H52.9474H52.925H52.9026H52.8803H52.8581H52.836H52.8139H52.7918H52.7699H52.748H52.7261H52.7044H52.6826H52.661H52.6394H52.6179H52.5964H52.5751H52.5537H52.5325H52.5113H52.4902H52.4691H52.4481H52.4272H52.4063H52.3856H52.3648H52.3442H52.3236H52.3031H52.2826H52.2623H52.242H52.2217H52.2016H52.1815H52.1615H52.1415H52.1216H52.1018C51.0395 32.1691 50.3425 31.2068 50.606 30.2407C51.5924 26.624 54.8812 24.0928 58.8509 24.0928C62.6876 24.0928 65.9925 26.7251 67.098 30.249ZM61.7254 18.4728C61.7254 20.1748 60.3202 21.58 58.6182 21.58C56.9161 21.58 55.5109 20.1748 55.5109 18.4728C55.5109 16.7707 56.9161 15.3655 58.6182 15.3655C60.3202 15.3655 61.7254 16.7707 61.7254 18.4728Z" stroke="#223039"/>
<path d="M54.1964 37.0909C55.8254 37.0909 56.8727 35.5782 56.4073 34.0655C55.1273 29.6437 51.0545 26.5018 46.1673 26.5018C41.3964 26.5018 37.3236 29.6437 35.9273 34.0655C35.5782 35.5782 36.7418 37.0909 38.2545 37.0909C42.3273 37.0909 50.1236 37.0909 54.1964 37.0909ZM50.9382 20.4509C50.9382 23.0109 48.8436 25.1055 46.2836 25.1055C43.7236 25.1055 41.6291 23.0109 41.6291 20.4509C41.6291 17.8909 43.7236 15.7964 46.2836 15.7964C48.8436 15.7964 50.9382 17.8909 50.9382 20.4509Z" fill="#68A706"/>
<path opacity="0.4" d="M14.5164 47.0981C14.1673 47.0981 13.9345 46.8654 13.9345 46.5163V41.6291C13.9345 41.28 14.1673 41.0472 14.5164 41.0472C14.8654 41.0472 15.0982 41.28 15.0982 41.6291V46.5163C15.0982 46.8654 14.8654 47.0981 14.5164 47.0981Z" fill="white"/>
</svg>
